<svg width="40" height="40" viewBox="0 0 40 40" fill="none" xmlns="http://www.w3.org/2000/svg">
<g clip-path="url(#clip0_237_13461)">
<path d="M20 0C8.95601 0 0 8.95601 0 20C0 31.044 8.95601 40 20 40C31.044 40 40 31.044 40 20C40 8.95601 31.044 0 20 0ZM30.0336 15.3026V18.0106C28.7566 18.0111 27.5159 17.7609 26.3458 17.2672C25.5979 16.9519 24.8938 16.5413 24.2512 16.0456L24.2704 24.381C24.2623 26.258 23.5198 28.0215 22.1758 29.3498C21.082 30.4311 19.6961 31.1187 18.1939 31.3412C17.8378 31.3939 17.4784 31.4204 17.1184 31.4203C15.5104 31.4203 13.9838 30.8994 12.7349 29.9383C12.4985 29.7561 12.2735 29.5596 12.0612 29.3498C10.6046 27.9102 9.85352 25.9591 9.98 23.9066C10.0765 22.3441 10.702 20.8541 11.7448 19.6862C13.1245 18.1407 15.0547 17.2829 17.1184 17.2829C17.4817 17.2829 17.8409 17.3102 18.1939 17.3624V21.149C17.8505 21.0356 17.4912 20.9778 17.1296 20.9779C15.2441 20.9779 13.7188 22.5162 13.747 24.403C13.7648 25.6103 14.4243 26.6656 15.397 27.2473C15.8655 27.5284 16.3955 27.6909 16.9411 27.7209C17.3654 27.7445 17.7904 27.6881 18.1939 27.5548C19.541 27.1098 20.5128 25.8445 20.5128 24.3521L20.5173 18.7703V8.57969H24.2466C24.2498 8.94218 24.2868 9.30357 24.3574 9.65914C24.6389 11.0733 25.436 12.3002 26.5454 13.1366C27.5127 13.8662 28.7173 14.2987 30.0228 14.2987C30.0237 14.2987 30.0345 14.2987 30.0335 14.2978V15.3026H30.0336Z" fill="#EDEBFF"/>
</g>
<defs>
<clipPath id="clip0_237_13461">
<rect width="40" height="40" fill="white"/>
</clipPath>
</defs>
</svg>
