<svg width="40" height="40" viewBox="0 0 40 40" fill="none" xmlns="http://www.w3.org/2000/svg">
<path d="M19.4203 21.5369V21.5374L25.9081 30.8173H29.1711L14.1518 9.33358H10.8888L19.4203 21.5369Z" fill="#EDEBFF"/>
<path fill-rule="evenodd" clip-rule="evenodd" d="M20 40C31.0457 40 40 31.0457 40 20C40 8.95431 31.0457 0 20 0C8.95431 0 0 8.95431 0 20C0 31.0457 8.95431 40 20 40ZM31.2944 7.73438L22.33 18.1548H22.3294L32.0792 32.3438H24.9087L18.3432 22.7889L10.1234 32.3438H7.99896L17.4001 21.4164L7.99896 7.73438H15.1694L21.3863 16.7823L29.1701 7.73438H31.2944Z" fill="#EDEBFF"/>
</svg>
