<svg width="30" height="30" viewBox="0 0 30 30" fill="none" xmlns="http://www.w3.org/2000/svg">
<rect x="0.5" y="0.5" width="29" height="29" rx="14.5" fill="#FFEBE0"/>
<rect x="0.5" y="0.5" width="29" height="29" rx="14.5" stroke="#FFD0CA"/>
<path d="M19.7785 10.2291C19.7083 10.1588 19.625 10.103 19.5332 10.0649C19.4415 10.0269 19.3431 10.0073 19.2438 10.0073C19.1444 10.0073 19.0461 10.0269 18.9543 10.0649C18.8625 10.103 18.7792 10.1588 18.709 10.2291L15 13.9305L11.291 10.2215C11.2207 10.1513 11.1374 10.0956 11.0456 10.0576C10.9539 10.0196 10.8555 10 10.7562 10C10.6569 10 10.5586 10.0196 10.4668 10.0576C10.3751 10.0956 10.2917 10.1513 10.2215 10.2215C10.1513 10.2917 10.0956 10.3751 10.0576 10.4668C10.0196 10.5586 10 10.6569 10 10.7562C10 10.8555 10.0196 10.9539 10.0576 11.0456C10.0956 11.1374 10.1513 11.2207 10.2215 11.291L13.9305 15L10.2215 18.709C10.1513 18.7793 10.0956 18.8626 10.0576 18.9544C10.0196 19.0461 10 19.1445 10 19.2438C10 19.3431 10.0196 19.4414 10.0576 19.5332C10.0956 19.6249 10.1513 19.7083 10.2215 19.7785C10.2917 19.8487 10.3751 19.9044 10.4668 19.9424C10.5586 19.9804 10.6569 20 10.7562 20C10.8555 20 10.9539 19.9804 11.0456 19.9424C11.1374 19.9044 11.2207 19.8487 11.291 19.7785L15 16.0695L18.709 19.7785C18.7793 19.8487 18.8626 19.9044 18.9544 19.9424C19.0461 19.9804 19.1445 20 19.2438 20C19.3431 20 19.4414 19.9804 19.5332 19.9424C19.6249 19.9044 19.7083 19.8487 19.7785 19.7785C19.8487 19.7083 19.9044 19.6249 19.9424 19.5332C19.9804 19.4414 20 19.3431 20 19.2438C20 19.1445 19.9804 19.0461 19.9424 18.9544C19.9044 18.8626 19.8487 18.7793 19.7785 18.709L16.0695 15L19.7785 11.291C20.0667 11.0027 20.0667 10.5173 19.7785 10.2291Z" fill="#252525"/>
</svg>
