<svg width="30" height="30" viewBox="0 0 30 30" fill="none" xmlns="http://www.w3.org/2000/svg">
<rect x="0.5" y="0.5" width="29" height="29" rx="14.5" fill="#FFFEDC"/>
<rect x="0.5" y="0.5" width="29" height="29" rx="14.5" stroke="#ECD59A"/>
<g clip-path="url(#clip0_396_9821)">
<path d="M16.6162 21.5727C16.4838 21.6057 16.3504 21.6346 16.2162 21.6594C15.8672 21.7243 15.6364 22.06 15.701 22.4093C15.7315 22.5745 15.8256 22.7212 15.963 22.8178C16.033 22.8672 16.1122 22.9021 16.196 22.9204C16.2797 22.9388 16.3663 22.9401 16.4505 22.9244C16.6104 22.8947 16.7693 22.8602 16.927 22.8209C17.2717 22.7351 17.4817 22.386 17.3957 22.0415C17.3099 21.6967 16.9611 21.4869 16.6162 21.5727ZM21.3727 12.9513C21.4159 13.082 21.4999 13.1953 21.6124 13.2746C21.7735 13.388 21.9843 13.4262 22.1855 13.3597C22.5228 13.2477 22.7055 12.884 22.5939 12.5469C22.5428 12.3926 22.487 12.2399 22.4266 12.089C22.2947 11.7592 21.9205 11.5986 21.5905 11.7305C21.2609 11.8624 21.1002 12.2366 21.2323 12.5666C21.283 12.6933 21.3298 12.8217 21.3727 12.9513ZM18.7063 20.6544C18.5923 20.7297 18.4761 20.8015 18.3577 20.8697C18.0499 21.0472 17.9445 21.4407 18.122 21.7483C18.1685 21.8292 18.2321 21.8989 18.3083 21.9527C18.5067 22.0923 18.7762 22.1132 19.0005 21.984C19.1414 21.9028 19.2797 21.8173 19.4154 21.7277C19.7116 21.5319 19.7932 21.1328 19.5973 20.8364C19.4015 20.5399 19.0026 20.4585 18.7063 20.6544ZM22.9939 14.7478C22.9799 14.3928 22.6808 14.1164 22.3257 14.1303C21.9711 14.1443 21.6945 14.4434 21.7085 14.7983C21.7138 14.934 21.7152 15.0717 21.712 15.2072C21.7071 15.4299 21.8159 15.6283 21.9852 15.7476C22.0895 15.8211 22.2134 15.8619 22.341 15.8646C22.696 15.8725 22.9902 15.5909 22.9981 15.2357C23.0016 15.0737 23.0003 14.9096 22.9939 14.7478ZM21.2677 18.9623C20.9831 18.7487 20.5803 18.8067 20.3671 19.0909C20.2852 19.2 20.1999 19.3067 20.1114 19.4106C19.8813 19.681 19.9138 20.087 20.1842 20.3173C20.1996 20.3304 20.2152 20.3424 20.2313 20.3537C20.5001 20.5431 20.8736 20.4996 21.0909 20.2446C21.1965 20.1205 21.2983 19.9931 21.3961 19.8628C21.6093 19.5786 21.5516 19.1756 21.2677 18.9623ZM22.2132 16.6372C21.8743 16.5309 21.5133 16.7196 21.4071 17.0585C21.3662 17.1889 21.3214 17.3179 21.2728 17.4456C21.166 17.7261 21.2683 18.0347 21.5029 18.2001C21.5468 18.2311 21.5945 18.2564 21.6448 18.2754C21.9766 18.4021 22.3483 18.2356 22.4748 17.9036C22.5325 17.7518 22.5858 17.5983 22.6346 17.4433C22.7407 17.1043 22.5521 16.7434 22.2132 16.6372ZM13.8099 21.6652C13.2395 21.5631 12.6848 21.3869 12.1601 21.1409C12.1539 21.1376 12.1484 21.1339 12.1419 21.131C12.0183 21.0729 11.8963 21.0111 11.7763 20.9459C11.7759 20.9454 11.7751 20.9451 11.7745 20.9448C11.554 20.8233 11.3403 20.6898 11.1345 20.5449C8.10884 18.4135 7.38135 14.2179 9.51287 11.1922C9.97636 10.5345 10.5373 9.98585 11.1626 9.55097C11.1703 9.54561 11.178 9.54028 11.1856 9.53488C13.3891 8.0166 16.3811 7.91428 18.7209 9.47445L18.2184 10.2005C18.0787 10.4026 18.1646 10.5499 18.4092 10.5279L20.5921 10.3325C20.837 10.3105 20.9834 10.0986 20.9175 9.86213L20.3314 7.75015C20.2657 7.51338 20.0977 7.48504 19.9579 7.6871L19.4542 8.41491C17.7371 7.26227 15.6776 6.82275 13.6335 7.17722C13.4289 7.21272 13.2257 7.25609 13.0244 7.30722C13.0229 7.3075 13.0217 7.30767 13.0204 7.30795C13.0127 7.30984 13.0048 7.31235 12.9973 7.31445C11.2346 7.7671 9.6967 8.79517 8.5993 10.262C8.59005 10.273 8.58052 10.2837 8.57178 10.2956C8.53512 10.3451 8.49906 10.395 8.46362 10.4454C8.4054 10.528 8.34877 10.6118 8.29378 10.6967C8.28693 10.7069 8.28171 10.7172 8.27572 10.7275C7.37013 12.1308 6.93333 13.7532 7.00824 15.4048C7.00841 15.4103 7.0081 15.4157 7.00824 15.4213C7.01567 15.5836 7.02815 15.7457 7.04566 15.9073C7.04659 15.9176 7.04889 15.9275 7.05065 15.9379C7.06853 16.1007 7.09145 16.263 7.11937 16.4244C7.40635 18.08 8.18736 19.5699 9.35768 20.7291C9.3604 20.7318 9.36322 20.7348 9.36597 20.7376C9.36693 20.7387 9.368 20.7392 9.36893 20.7402C9.68636 21.0534 10.0291 21.3398 10.3936 21.5965C11.3573 22.2756 12.4305 22.7245 13.5829 22.9313C13.9326 22.9941 14.2666 22.7614 14.3294 22.4119C14.3921 22.0621 14.1595 21.7278 13.8099 21.6652Z" fill="#252525"/>
<path d="M14.6046 9.86133C14.317 9.86133 14.084 10.0945 14.084 10.3817V15.5665L18.8259 18.0178C18.8995 18.056 18.9813 18.0759 19.0643 18.0759C19.2527 18.0759 19.4346 17.9733 19.527 17.7944C19.6589 17.539 19.5591 17.2252 19.3037 17.0933L15.1246 14.9328V10.3817C15.1246 10.0945 14.8919 9.86133 14.6046 9.86133Z" fill="#252525"/>
</g>
<defs>
<clipPath id="clip0_396_9821">
<rect width="16" height="16" fill="white" transform="translate(7 7)"/>
</clipPath>
</defs>
</svg>
