<svg width="30" height="30" viewBox="0 0 30 30" fill="none" xmlns="http://www.w3.org/2000/svg">
<rect x="0.5" y="0.5" width="29" height="29" rx="14.5" fill="#E6E5FF"/>
<rect x="0.5" y="0.5" width="29" height="29" rx="14.5" stroke="#B6A8FF"/>
<path fill-rule="evenodd" clip-rule="evenodd" d="M14.9997 13.3335C15.9203 13.3335 16.6663 14.0796 16.6663 15.0002C16.6663 15.9207 15.9203 16.6668 14.9997 16.6668C14.0791 16.6668 13.333 15.9207 13.333 15.0002C13.333 14.0796 14.0791 13.3335 14.9997 13.3335Z" stroke="#252525" stroke-linecap="round" stroke-linejoin="round"/>
<path fill-rule="evenodd" clip-rule="evenodd" d="M20.445 11.8333V11.8333C19.9893 11.0385 18.9805 10.7665 18.192 11.2255C17.5062 11.6239 16.6491 11.1254 16.6491 10.328C16.6491 9.41063 15.9103 8.6665 14.9995 8.6665V8.6665C14.0888 8.6665 13.35 9.41063 13.35 10.328C13.35 11.1254 12.4929 11.6239 11.8077 11.2255C11.0185 10.7665 10.0097 11.0385 9.55403 11.8333C9.09898 12.6282 9.369 13.6443 10.1581 14.1026C10.8433 14.5017 10.8433 15.498 10.1581 15.8971C9.369 16.3561 9.09898 17.3722 9.55403 18.1663C10.0097 18.9612 11.0185 19.2331 11.807 18.7748H11.8077C12.4929 18.3757 13.35 18.8743 13.35 19.6717V19.6717C13.35 20.589 14.0888 21.3332 14.9995 21.3332V21.3332C15.9103 21.3332 16.6491 20.589 16.6491 19.6717V19.6717C16.6491 18.8743 17.5062 18.3757 18.192 18.7748C18.9805 19.2331 19.9893 18.9612 20.445 18.1663C20.9007 17.3722 20.63 16.3561 19.8416 15.8971H19.8409C19.1557 15.498 19.1557 14.5017 19.8416 14.1026C20.63 13.6443 20.9007 12.6282 20.445 11.8333Z" stroke="#252525" stroke-linecap="round" stroke-linejoin="round"/>
</svg>
