<svg width="46" height="32" viewBox="0 0 46 32" fill="none" xmlns="http://www.w3.org/2000/svg">
<rect x="0.5" y="0.5" width="45" height="31" rx="2" fill="#FEB4C7" stroke="#D9D9D9"/>
<path fill-rule="evenodd" clip-rule="evenodd" d="M7 21H5V12H7V16.7703V21ZM7 16.7703L7.70818 16.1708C8.88258 15.1763 9.55617 13.6562 9.55617 12H11.3437C11.3437 13.9484 10.672 15.7608 9.4752 17.108L12 21H9.74395L7 16.7703ZM15 21H13V12H15V18V21ZM15 18C15 16.3431 16.2612 15 17.8171 15C18.4049 15 18.95 15.1928 19.4015 15.5208V15.1571H21V20.8426H19.4015V20.4792C18.95 20.8072 18.4049 21 17.8171 21C16.2612 21 15 19.6569 15 18ZM19 18.4999C19 19.3284 18.3284 20 17.5 20C16.6716 20 16 19.3284 16 18.4999C16 17.6715 16.6716 17 17.5 17C18.3284 17 19 17.6715 19 18.4999ZM23.5328 15V15.7815C23.8329 15.3127 24.3921 15.0003 25 15.0003V16.7463L24.9917 16.7459L24.9917 16.7459C24.9885 16.7457 24.9854 16.7455 24.9822 16.7455C24.3899 16.7455 23.5362 17.2535 23.5362 18.1986V21H22V15H23.5328ZM40 20C40 19.4477 40.4477 19 41 19C41.5522 19 42 19.4477 42 20C42 20.5522 41.5522 21 41 21C40.4477 21 40 20.5522 40 20ZM29.5239 15C28.8291 15 28.1715 15.217 27.7319 15.8155V15.1575H26V21H27.7531V17.9296C27.7531 17.0411 28.3455 16.606 29.0588 16.606C29.8232 16.606 30.2627 17.0652 30.2627 17.9175V21H32V17.2844C32 15.9247 30.9251 15 29.5239 15ZM37.4016 15.5208V15.1571H39V20.8426H37.4016V20.4792C36.95 20.8072 36.405 21 35.8171 21C34.2612 21 33 19.6569 33 18C33 16.3431 34.2612 15 35.8171 15C36.405 15 36.95 15.1928 37.4016 15.5208ZM36.5 20C37.3285 20 38 19.3284 38 18.4999C38 17.6715 37.3285 17 36.5 17C35.6715 17 35 17.6715 35 18.4999C35 19.3284 35.6715 20 36.5 20Z" fill="#17120F"/>
</svg>
