<svg width="46" height="32" viewBox="0 0 46 32" fill="none" xmlns="http://www.w3.org/2000/svg">
<rect x="0.78125" y="0.78125" width="44.4375" height="30.4375" rx="3.125" fill="#1F72CD" stroke="#D9D9D9" stroke-width="1.5625"/>
<path fill-rule="evenodd" clip-rule="evenodd" d="M8.28861 11.2407L4 21.152H9.13407L9.77054 19.5717H11.2254L11.8619 21.152H17.513V19.9459L18.0166 21.152H20.9398L21.4433 19.9204V21.152H33.1962L34.6253 19.6128L35.9635 21.152L42 21.1647L37.6979 16.224L42 11.2407H36.0571L34.666 12.7515L33.3699 11.2407H20.5843L19.4864 13.7989L18.3628 11.2407H13.2394V12.4058L12.6695 11.2407H8.28861ZM25.8391 12.648H32.5882L34.6524 14.9766L36.7832 12.648H38.8474L35.711 16.2225L38.8474 19.7558H36.6896L34.6253 17.4002L32.4837 19.7558H25.8391V12.648ZM27.5059 15.4189V14.1206V14.1193H31.7171L33.5546 16.1956L31.6357 18.2833H27.5059V16.8659H31.1878V15.4189H27.5059ZM9.28198 12.648H11.7846L14.6292 19.3689V12.648H17.3707L19.5678 17.4669L21.5928 12.648H24.3205V19.76H22.6607L22.6472 14.1871L20.2274 19.76H18.7426L16.3092 14.1871V19.76H12.8947L12.2473 18.1656H8.75L8.104 19.7586H6.27451L9.28198 12.648ZM9.34715 16.6919L10.4994 13.8515L11.6503 16.6919H9.34715Z" fill="white"/>
</svg>
