<svg width="46" height="32" viewBox="0 0 46 32" fill="none" xmlns="http://www.w3.org/2000/svg">
<rect x="0.78125" y="0.78125" width="44.4375" height="30.4375" rx="3.125" fill="white" stroke="#D9D9D9" stroke-width="1.5625"/>
<path fill-rule="evenodd" clip-rule="evenodd" d="M10.9692 11.9108C11.587 11.9636 12.2048 11.5936 12.5909 11.1244C12.9705 10.642 13.2215 9.99434 13.1572 9.3335C12.6102 9.35993 11.9345 9.70357 11.5484 10.186C11.1945 10.6023 10.892 11.2764 10.9692 11.9108ZM18.3182 20.4222V10.1197H22.0827C24.0261 10.1197 25.3839 11.4943 25.3839 13.5032C25.3839 15.5122 24.0004 16.8999 22.0312 16.8999H19.8755V20.4222H18.3182ZM13.1507 12.0362C12.6065 12.004 12.1099 12.2043 11.7088 12.366C11.4506 12.4701 11.2321 12.5583 11.0658 12.5583C10.8791 12.5583 10.6515 12.4654 10.396 12.3612C10.0611 12.2245 9.67828 12.0684 9.27681 12.0759C8.35659 12.0891 7.50072 12.6244 7.03096 13.4768C6.0657 15.1818 6.77999 17.7062 7.71308 19.094C8.16997 19.7813 8.71695 20.5346 9.43768 20.5082C9.75476 20.4959 9.98285 20.3965 10.2189 20.2936C10.4907 20.1752 10.773 20.0522 11.2138 20.0522C11.6393 20.0522 11.9093 20.172 12.1684 20.287C12.4148 20.3964 12.6514 20.5014 13.0027 20.495C13.7492 20.4817 14.219 19.8077 14.6758 19.1204C15.1689 18.3828 15.3856 17.6629 15.4185 17.5536L15.4223 17.541C15.4215 17.5402 15.4154 17.5373 15.4047 17.5323C15.2399 17.4548 13.9801 16.8625 13.968 15.2743C13.9559 13.9413 14.9672 13.2659 15.1264 13.1595C15.1361 13.1531 15.1427 13.1487 15.1456 13.1464C14.5021 12.1684 13.4982 12.0626 13.1507 12.0362ZM28.2282 20.5016C29.2064 20.5016 30.1137 19.9928 30.5255 19.1866H30.5577V20.4223H31.9992V15.2942C31.9992 13.8073 30.8409 12.8491 29.0583 12.8491C27.4045 12.8491 26.1819 13.8206 26.1368 15.1555H27.5397C27.6555 14.521 28.2282 14.1047 29.0133 14.1047C29.9657 14.1047 30.4998 14.5607 30.4998 15.4V15.9683L28.5564 16.0872C26.7482 16.1996 25.77 16.9595 25.77 18.2812C25.77 19.6161 26.7803 20.5016 28.2282 20.5016ZM28.6465 19.2793C27.8163 19.2793 27.2887 18.8696 27.2887 18.2418C27.2887 17.5942 27.797 17.2175 28.7687 17.158L30.4998 17.0457V17.6272C30.4998 18.592 29.7018 19.2793 28.6465 19.2793ZM36.7804 20.8255C36.1562 22.6296 35.4419 23.2244 33.9232 23.2244C33.8074 23.2244 33.4213 23.2111 33.3312 23.1847V21.9489C33.4277 21.9622 33.6658 21.9754 33.7881 21.9754C34.4767 21.9754 34.8628 21.678 35.1009 20.9048L35.2424 20.4488L32.604 12.9483H34.2321L36.0661 19.0346H36.0983L37.9323 12.9483H39.5153L36.7804 20.8255ZM19.8753 11.4682H21.6707C23.022 11.4682 23.7942 12.2083 23.7942 13.5102C23.7942 14.812 23.022 15.5588 21.6642 15.5588H19.8753V11.4682Z" fill="black"/>
</svg>
