<svg width="46" height="32" viewBox="0 0 46 32" fill="none" xmlns="http://www.w3.org/2000/svg">
<rect x="0.78125" y="0.78125" width="44.4375" height="30.4375" rx="3.125" fill="white" stroke="#D9D9D9" stroke-width="1.5625"/>
<path d="M29.9455 11.8241L27.8592 10.5694L25.7427 9.29575C24.3438 8.45296 22.5951 9.51119 22.5951 11.2094V11.4946C22.5951 11.653 22.6735 11.7988 22.8062 11.8748L23.7891 12.4641C24.0604 12.6289 24.3981 12.4198 24.3981 12.0902V11.4122C24.3981 11.0764 24.7418 10.8673 25.0191 11.032L26.9487 12.198L28.8722 13.3576C29.1496 13.5223 29.1496 13.9469 28.8722 14.1117L26.9487 15.2713L25.0191 16.4372C24.7418 16.602 24.3981 16.3929 24.3981 16.057V15.7212C24.3981 14.0229 22.6494 12.9584 21.2505 13.8075L19.14 15.0875L17.0537 16.3422C15.6488 17.1913 15.6488 19.3268 17.0537 20.1759L19.14 21.4306L21.2565 22.7043C22.6554 23.547 24.4041 22.4888 24.4041 20.7906V20.5054C24.4041 20.347 24.3257 20.2012 24.1931 20.1252L23.2102 19.5359C22.9388 19.3711 22.6012 19.5802 22.6012 19.9098V20.5878C22.6012 20.9236 22.2575 21.1327 21.9801 20.968L20.0506 19.802L18.127 18.6424C17.8497 18.4777 17.8497 18.0531 18.127 17.8883L20.0506 16.7287L21.9801 15.5628C22.2575 15.398 22.6012 15.6071 22.6012 15.943V16.2788C22.6012 17.9771 24.3498 19.0416 25.7488 18.1925L27.8652 16.9188L29.9516 15.6642C31.3505 14.8087 31.3505 12.6732 29.9455 11.8241Z" fill="#252525"/>
</svg>
