<svg width="46" height="32" viewBox="0 0 46 32" fill="none" xmlns="http://www.w3.org/2000/svg">
<rect x="0.78125" y="0.78125" width="44.4375" height="30.4375" rx="3.125" fill="white" stroke="#D9D9D9" stroke-width="1.5625"/>
<path fill-rule="evenodd" clip-rule="evenodd" d="M21.7252 21.0109V16.983H23.7744C24.6141 16.983 25.3228 16.6976 25.9006 16.1346L26.0393 15.9919C27.0947 14.8263 27.0254 13.0106 25.9006 11.9322C25.3382 11.3613 24.5679 11.0521 23.7744 11.068H20.4849V21.0109H21.7252ZM21.7253 15.7622V12.2893H23.8057C24.2525 12.2893 24.6763 12.4637 24.9922 12.7809C25.6626 13.4469 25.678 14.557 25.0307 15.2468C24.7148 15.5878 24.268 15.7781 23.8057 15.7622H21.7253ZM31.8248 14.7393C31.2933 14.2398 30.5691 13.9861 29.6524 13.9861C28.4737 13.9861 27.5878 14.4301 27.0023 15.3102L28.0962 16.0159C28.4968 15.4133 29.0438 15.112 29.7371 15.112C30.1762 15.112 30.5999 15.2785 30.9312 15.5798C31.2547 15.8652 31.4396 16.2776 31.4396 16.7136V17.007C30.962 16.7374 30.3611 16.5947 29.6215 16.5947C28.7587 16.5947 28.0654 16.8009 27.5492 17.2211C27.0331 17.6413 26.7712 18.1964 26.7712 18.9021C26.7557 19.5443 27.0254 20.1548 27.503 20.5672C27.9884 21.0112 28.6047 21.2332 29.3288 21.2332C30.1839 21.2332 30.8619 20.8447 31.378 20.0676H31.4319V21.0112H32.6183V16.8167C32.6183 15.9366 32.3564 15.2389 31.8248 14.7393ZM28.4586 19.7585C28.2043 19.5682 28.0502 19.2589 28.0502 18.9259C28.0502 18.5533 28.2197 18.244 28.551 17.9982C28.89 17.7524 29.3138 17.6256 29.8146 17.6256C30.5081 17.6176 31.0474 17.7762 31.4327 18.0934C31.4327 18.6325 31.2246 19.1004 30.8163 19.4968C30.4464 19.8774 29.9456 20.0915 29.4217 20.0915C29.075 20.0994 28.7359 19.9805 28.4586 19.7585ZM35.2839 24.0004L39.4285 14.2081H38.0803L36.1621 19.0924H36.139L34.1745 14.2081H32.8264L35.5458 20.5751L34.005 24.0004H35.2839Z" fill="#3C4043"/>
<path d="M17.4433 16.1103C17.4433 15.7218 17.4125 15.3332 17.3508 14.9526H12.12V17.149H15.1168C14.9935 17.8547 14.5929 18.489 14.0074 18.8854V20.3126H15.7947C16.8424 19.3215 17.4433 17.8547 17.4433 16.1103Z" fill="#4285F4"/>
<path d="M12.1201 21.6928C13.6147 21.6928 14.8781 21.1854 15.7948 20.3132L14.0076 18.8859C13.5068 19.2348 12.8674 19.433 12.1201 19.433C10.6718 19.433 9.44694 18.4261 9.00783 17.0781H7.16663V18.5529C8.10648 20.4797 10.0247 21.6928 12.1201 21.6928Z" fill="#34A853"/>
<path d="M9.00824 17.0781C8.77709 16.3724 8.77709 15.6033 9.00824 14.8897V13.4229H7.16674C6.37313 15.0324 6.37313 16.9354 7.16674 18.545L9.00824 17.0781Z" fill="#FBBC04"/>
<path d="M12.1201 12.5345C12.9136 12.5187 13.6763 12.8279 14.2464 13.3909L15.8334 11.7575C14.8242 10.7901 13.4991 10.2589 12.1201 10.2748C10.0247 10.2748 8.10649 11.4958 7.16663 13.4226L9.00783 14.8974C9.44694 13.5415 10.6718 12.5345 12.1201 12.5345Z" fill="#EA4335"/>
</svg>
