<svg width="46" height="32" viewBox="0 0 46 32" fill="none" xmlns="http://www.w3.org/2000/svg">
<rect x="0.78125" y="0.78125" width="44.4375" height="30.4375" rx="3.125" fill="white" stroke="#D9D9D9" stroke-width="1.5625"/>
<path fill-rule="evenodd" clip-rule="evenodd" d="M23.4286 23.3947C21.6734 24.8673 19.3966 25.7563 16.9087 25.7563C11.3574 25.7563 6.85718 21.3303 6.85718 15.8706C6.85718 10.4109 11.3574 5.98486 16.9087 5.98486C19.3966 5.98486 21.6734 6.87385 23.4286 8.34645C25.1838 6.87386 27.4606 5.98488 29.9485 5.98488C35.4998 5.98488 40 10.4109 40 15.8706C40 21.3303 35.4998 25.7563 29.9485 25.7563C27.4606 25.7563 25.1838 24.8674 23.4286 23.3947Z" fill="#ED0006"/>
<path fill-rule="evenodd" clip-rule="evenodd" d="M23.4286 23.3948C25.5898 21.5816 26.9602 18.8835 26.9602 15.8706C26.9602 12.8577 25.5898 10.1596 23.4286 8.34639C25.1838 6.87382 27.4606 5.98486 29.9484 5.98486C35.4997 5.98486 39.9999 10.4109 39.9999 15.8706C39.9999 21.3303 35.4997 25.7563 29.9484 25.7563C27.4606 25.7563 25.1838 24.8674 23.4286 23.3948Z" fill="#F9A000"/>
<path fill-rule="evenodd" clip-rule="evenodd" d="M23.4286 23.3949C25.5898 21.5817 26.9602 18.8836 26.9602 15.8708C26.9602 12.858 25.5898 10.1599 23.4286 8.34668C21.2675 10.1599 19.8971 12.858 19.8971 15.8708C19.8971 18.8836 21.2675 21.5817 23.4286 23.3949Z" fill="#FF5E00"/>
</svg>
