<svg width="46" height="32" viewBox="0 0 46 32" fill="none" xmlns="http://www.w3.org/2000/svg">
<rect x="0.78125" y="0.78125" width="44.4375" height="30.4375" rx="3.125" fill="white" stroke="#D9D9D9" stroke-width="1.5625"/>
<path fill-rule="evenodd" clip-rule="evenodd" d="M13.2 20.3218H11.1259C10.9839 20.3218 10.8632 20.4249 10.8411 20.565L10.0022 25.8838C9.9855 25.9887 10.0668 26.0833 10.1732 26.0833H11.1635C11.3054 26.0833 11.4261 25.9802 11.4482 25.8398L11.6745 24.4053C11.6963 24.2648 11.8173 24.1618 11.959 24.1618H12.6156C13.9819 24.1618 14.7704 23.5006 14.9764 22.1904C15.0692 21.6172 14.9804 21.1668 14.7119 20.8513C14.4171 20.5051 13.8942 20.3218 13.2 20.3218ZM13.4393 22.2644C13.3259 23.0087 12.7572 23.0087 12.2074 23.0087H11.8944L12.114 21.6186C12.127 21.5347 12.1998 21.4728 12.2847 21.4728H12.4282C12.8027 21.4728 13.1561 21.4728 13.3387 21.6863C13.4474 21.8137 13.4809 22.0029 13.4393 22.2644ZM19.4002 22.2405H18.4069C18.3223 22.2405 18.2491 22.3024 18.2361 22.3865L18.1922 22.6642L18.1227 22.5636C17.9077 22.2515 17.4282 22.1472 16.9496 22.1472C15.8519 22.1472 14.9145 22.9785 14.7319 24.1447C14.6371 24.7263 14.7719 25.2825 15.1019 25.6704C15.4046 26.0271 15.8378 26.1757 16.353 26.1757C17.2374 26.1757 17.7279 25.607 17.7279 25.607L17.6835 25.8831C17.6668 25.9886 17.7481 26.0832 17.8539 26.0832H18.7487C18.891 26.0832 19.011 25.98 19.0334 25.8397L19.5703 22.4401C19.5873 22.3355 19.5063 22.2405 19.4002 22.2405ZM18.0156 24.1737C17.9197 24.7412 17.4694 25.1221 16.895 25.1221C16.6066 25.1221 16.376 25.0296 16.2281 24.8543C16.0813 24.6802 16.0254 24.4324 16.0722 24.1565C16.1617 23.5938 16.6197 23.2005 17.1853 23.2005C17.4672 23.2005 17.6966 23.2941 17.8476 23.471C17.9989 23.6496 18.059 23.8989 18.0156 24.1737ZM23.692 22.2404H24.6901C24.8299 22.2404 24.9115 22.3972 24.832 22.5118L21.5123 27.3037C21.4586 27.3813 21.37 27.4275 21.2754 27.4275H20.2785C20.1381 27.4275 20.0562 27.2694 20.1374 27.1545L21.1711 25.6954L20.0717 22.469C20.0337 22.3569 20.1165 22.2404 20.2358 22.2404H21.2166C21.344 22.2404 21.4565 22.324 21.4932 22.446L22.0767 24.3946L23.4534 22.3668C23.5073 22.2877 23.5968 22.2404 23.692 22.2404Z" fill="#253B80"/>
<path fill-rule="evenodd" clip-rule="evenodd" d="M34.5141 25.884L35.3653 20.468C35.3783 20.384 35.4512 20.3221 35.5358 20.3218H36.4941C36.6 20.3218 36.6812 20.4167 36.6645 20.5216L35.8251 25.8401C35.8032 25.9805 35.6825 26.0836 35.5403 26.0836H34.6845C34.5786 26.0836 34.4974 25.989 34.5141 25.884ZM27.9949 20.3221H25.9204C25.7787 20.3221 25.658 20.4252 25.6359 20.5653L24.797 25.884C24.7803 25.989 24.8615 26.0836 24.9675 26.0836H26.0319C26.1309 26.0836 26.2155 26.0115 26.231 25.9132L26.469 24.4056C26.4909 24.2651 26.6119 24.1621 26.7535 24.1621H27.4098C28.7764 24.1621 29.5647 23.5009 29.7709 22.1907C29.8639 21.6175 29.7745 21.1671 29.5062 20.8516C29.2116 20.5054 28.6891 20.3221 27.9949 20.3221ZM28.2342 22.2647C28.1211 23.0089 27.5524 23.0089 27.0022 23.0089H26.6895L26.9094 21.6189C26.9225 21.535 26.9946 21.4731 27.0798 21.4731H27.2232C27.5976 21.4731 27.9512 21.4731 28.1337 21.6866C28.2426 21.814 28.2757 22.0032 28.2342 22.2647ZM34.1945 22.2408H33.2019C33.1166 22.2408 33.0442 22.3027 33.0314 22.3868L32.9875 22.6645L32.9177 22.5639C32.7027 22.2517 32.2235 22.1475 31.7449 22.1475C30.6472 22.1475 29.7101 22.9788 29.5275 24.1449C29.4329 24.7266 29.5672 25.2828 29.8972 25.6707C30.2005 26.0273 30.6331 26.176 31.1483 26.176C32.0327 26.176 32.523 25.6073 32.523 25.6073L32.4788 25.8833C32.4621 25.9889 32.5434 26.0835 32.6499 26.0835H33.5442C33.6859 26.0835 33.8066 25.9803 33.8287 25.84L34.3659 22.4404C34.3823 22.3358 34.301 22.2408 34.1945 22.2408ZM32.8101 24.174C32.7148 24.7414 32.2638 25.1224 31.6894 25.1224C31.4015 25.1224 31.1705 25.0299 31.0224 24.8546C30.8756 24.6805 30.8204 24.4327 30.8666 24.1567C30.9566 23.5941 31.414 23.2008 31.9796 23.2008C32.2617 23.2008 32.4909 23.2944 32.6421 23.4713C32.7939 23.6499 32.854 23.8992 32.8101 24.174Z" fill="#179BD7"/>
<path d="M20.8761 18.4189L21.1311 16.7992L20.5631 16.7861H17.8508L19.7357 4.83428C19.7415 4.7982 19.7606 4.76455 19.7884 4.74067C19.8162 4.71678 19.8518 4.70361 19.8889 4.70361H24.4622C25.9805 4.70361 27.0283 5.01956 27.5753 5.64315C27.8318 5.9357 27.9951 6.2414 28.0742 6.57782C28.157 6.93083 28.1585 7.35257 28.0775 7.86696L28.0716 7.9045V8.23409L28.3282 8.3794C28.5442 8.49397 28.7157 8.62512 28.8473 8.7753C29.0669 9.02542 29.2088 9.34332 29.2687 9.7202C29.3306 10.1078 29.3101 10.5691 29.2088 11.0912C29.0917 11.6919 28.9025 12.2151 28.6471 12.6432C28.412 13.0376 28.1126 13.3647 27.7572 13.6183C27.4179 13.8592 27.0146 14.042 26.5588 14.1591C26.117 14.274 25.6134 14.3322 25.061 14.3322H24.705C24.4506 14.3322 24.2033 14.4238 24.0093 14.5882C23.8148 14.7559 23.6859 14.9849 23.6465 15.2356L23.6197 15.3814L23.1692 18.236L23.1487 18.3409C23.1433 18.3741 23.1341 18.3907 23.1205 18.4019C23.1082 18.412 23.0907 18.4189 23.0736 18.4189H20.8761Z" fill="#253B80"/>
<path d="M28.5708 7.94287C28.5572 8.03014 28.5416 8.11936 28.5241 8.21103C27.9209 11.3076 25.8576 12.3773 23.2222 12.3773H21.8804C21.5582 12.3773 21.2866 12.6113 21.2364 12.9292L20.5493 17.2862L20.3548 18.5211C20.3221 18.7298 20.4831 18.9181 20.6936 18.9181H23.0736C23.3554 18.9181 23.5947 18.7133 23.639 18.4354L23.6625 18.3144L24.1106 15.4709L24.1394 15.315C24.1832 15.0361 24.423 14.8313 24.7049 14.8313H25.0608C27.3665 14.8313 29.1715 13.8952 29.6991 11.1862C29.9195 10.0545 29.8054 9.10962 29.2222 8.44506C29.0458 8.24467 28.8268 8.07841 28.5708 7.94287Z" fill="#179BD7"/>
<path d="M27.9398 7.69109C27.8477 7.66427 27.7526 7.63989 27.655 7.61795C27.5571 7.5965 27.4566 7.57749 27.3533 7.56091C26.9914 7.5024 26.5951 7.47461 26.1704 7.47461H22.5858C22.4975 7.47461 22.4138 7.4946 22.3387 7.53068C22.1733 7.61015 22.0505 7.76667 22.0208 7.95827L21.2581 12.7881L21.2362 12.929C21.2865 12.6111 21.558 12.3771 21.8803 12.3771H23.222C25.8574 12.3771 27.9209 11.3069 28.5239 8.21084C28.5419 8.11917 28.5571 8.02995 28.5707 7.94268C28.4181 7.86174 28.2528 7.79251 28.0748 7.7335C28.031 7.71888 27.9857 7.70474 27.9398 7.69109Z" fill="#222D65"/>
<path d="M22.0208 7.95838C22.0506 7.76676 22.1735 7.61025 22.3387 7.53126C22.4143 7.49518 22.4977 7.47519 22.5859 7.47519H26.1706C26.5953 7.47519 26.9916 7.50298 27.3533 7.5615C27.4567 7.57807 27.5572 7.59709 27.6552 7.61853C27.7527 7.64049 27.8478 7.66486 27.94 7.69167C27.9857 7.70533 28.0311 7.71946 28.0754 7.73361C28.2534 7.7926 28.4187 7.86233 28.5713 7.94277C28.7508 6.79845 28.5699 6.01932 27.9512 5.3138C27.2691 4.53711 26.0379 4.20459 24.4626 4.20459H19.8891C19.5673 4.20459 19.2929 4.43861 19.2431 4.757L17.3383 16.8316C17.3006 17.0705 17.4849 17.2861 17.7258 17.2861H20.5494L21.2583 12.7882L22.0208 7.95838Z" fill="#253B80"/>
</svg>
