<svg width="46" height="32" viewBox="0 0 46 32" fill="none" xmlns="http://www.w3.org/2000/svg">
<rect x="0.78125" y="0.78125" width="44.4375" height="30.4375" rx="3.125" fill="#5A31F4" stroke="#D9D9D9" stroke-width="1.5625"/>
<path d="M25.8973 14.7482C25.8973 16.8016 24.4782 18.2675 22.4951 18.2675H20.6268C20.6061 18.2675 20.5857 18.2716 20.5667 18.2797C20.5476 18.2877 20.5303 18.2995 20.5158 18.3143C20.5012 18.3291 20.4897 18.3467 20.4819 18.3661C20.4741 18.3855 20.4701 18.4062 20.4702 18.4271V21.126C20.4702 21.1682 20.4537 21.2087 20.4244 21.2386C20.395 21.2685 20.3552 21.2854 20.3136 21.2856H19.0063C18.9752 21.2855 18.9448 21.276 18.919 21.2585C18.8932 21.2409 18.873 21.216 18.8611 21.1869C18.8532 21.1679 18.8491 21.1474 18.8489 21.1268V11.3877C18.8488 11.3667 18.8528 11.346 18.8606 11.3266C18.8684 11.3073 18.88 11.2897 18.8945 11.2748C18.9091 11.26 18.9264 11.2482 18.9454 11.2402C18.9644 11.2322 18.9849 11.228 19.0055 11.228H22.5034C24.4782 11.2257 25.8973 12.6916 25.8973 14.7482ZM24.2669 14.7482C24.2669 13.5676 23.4733 12.7047 22.397 12.7047H20.6268C20.6061 12.7047 20.5857 12.7088 20.5667 12.7169C20.5476 12.7249 20.5303 12.7367 20.5158 12.7515C20.5012 12.7663 20.4897 12.7839 20.4819 12.8033C20.4741 12.8227 20.4701 12.8434 20.4702 12.8643V16.6227C20.4702 16.6649 20.4867 16.7053 20.5161 16.735C20.5454 16.7648 20.5852 16.7816 20.6268 16.7816H22.397C23.4733 16.7893 24.2669 15.9256 24.2669 14.7482ZM26.2849 19.4172C26.2714 19.1023 26.3356 18.7889 26.4718 18.5056C26.608 18.2222 26.8118 17.9779 27.0648 17.7948C27.5748 17.4054 28.3721 17.2041 29.5427 17.1625L30.7892 17.1178V16.7446C30.7892 15.9966 30.2952 15.6804 29.5016 15.6804C28.7081 15.6804 28.2049 15.9657 28.0894 16.4323C28.08 16.4651 28.0601 16.4938 28.0328 16.5139C28.0056 16.534 27.9725 16.5443 27.9389 16.5433H26.7075C26.6849 16.5439 26.6623 16.5395 26.6415 16.5303C26.6208 16.5211 26.6022 16.5073 26.5873 16.49C26.5723 16.4727 26.5613 16.4523 26.555 16.4302C26.5488 16.4081 26.5474 16.3848 26.551 16.3621C26.7334 15.2563 27.6402 14.4158 29.5579 14.4158C31.598 14.4158 32.3345 15.3797 32.3345 17.2196V21.126C32.3341 21.1686 32.3171 21.2093 32.2872 21.2392C32.2573 21.2692 32.2169 21.2858 32.1749 21.2856H30.9337C30.8921 21.2855 30.8523 21.2689 30.8227 21.2394C30.8082 21.2246 30.7967 21.207 30.7888 21.1877C30.781 21.1684 30.777 21.1477 30.7771 21.1268V20.8345C30.7775 20.8104 30.7708 20.7867 30.7577 20.7665C30.7445 20.7463 30.7257 20.7307 30.7037 20.7216C30.6816 20.7125 30.6574 20.7103 30.6341 20.7155C30.6108 20.7207 30.5897 20.7329 30.5734 20.7505C30.2009 21.1615 29.5997 21.4584 28.6367 21.4584C27.2198 21.4584 26.2849 20.7104 26.2849 19.4172ZM30.7892 18.5706V18.2675L29.1748 18.3539C28.3243 18.3978 27.8294 18.7564 27.8294 19.3602C27.8294 19.9061 28.2832 20.2084 29.076 20.2084C30.153 20.2084 30.7892 19.6185 30.7892 18.5706ZM33.5811 24.2374V23.1055C33.5813 23.0817 33.5867 23.0583 33.5968 23.0369C33.607 23.0155 33.6216 22.9967 33.6398 22.9816C33.6579 22.9666 33.6791 22.9559 33.7017 22.9501C33.7244 22.9443 33.7481 22.9436 33.7711 22.9481C33.9611 22.9844 34.1549 23.0029 34.3488 23.0037C34.682 23.0201 35.011 22.9227 35.2832 22.7269C35.5553 22.5312 35.7549 22.2485 35.8499 21.9241L35.9305 21.6635C35.9422 21.6285 35.9422 21.5905 35.9305 21.5555L33.3439 14.816C33.3346 14.7916 33.3312 14.7652 33.3341 14.7392C33.337 14.7131 33.3461 14.6882 33.3606 14.6665C33.3751 14.6448 33.3946 14.627 33.4174 14.6146C33.4401 14.6023 33.4655 14.5957 33.4914 14.5955H34.7455C34.7776 14.5958 34.8088 14.6059 34.8351 14.6245C34.8614 14.643 34.8815 14.6692 34.893 14.6996L36.6496 19.4527C36.6606 19.4843 36.6809 19.5116 36.7079 19.531C36.7349 19.5503 36.7671 19.5607 36.8001 19.5607C36.8331 19.5607 36.8653 19.5503 36.8922 19.531C36.9192 19.5116 36.9396 19.4843 36.9506 19.4527L38.4761 14.7127C38.4866 14.6803 38.507 14.6521 38.5343 14.6322C38.5616 14.6122 38.5945 14.6015 38.6281 14.6016H39.9256C39.9516 14.6018 39.9771 14.6083 40.0001 14.6207C40.0231 14.6331 40.0427 14.6509 40.0574 14.6726C40.0722 14.6943 40.0815 14.7194 40.0846 14.7456C40.0877 14.7717 40.0845 14.7983 40.0753 14.823L37.3086 22.3074C36.6716 24.047 35.5794 24.4919 34.3769 24.4919C34.1489 24.4981 33.9208 24.4703 33.7004 24.4094C33.6637 24.3996 33.6317 24.3769 33.6099 24.3455C33.588 24.314 33.5778 24.2758 33.5811 24.2374ZM10.4476 10.6667C8.79977 10.6548 7.2101 11.2839 6.0056 12.4248C5.95409 12.4727 5.92198 12.5383 5.91551 12.6088C5.90905 12.6794 5.9287 12.7498 5.97063 12.8065L6.71629 13.8398C6.74046 13.8742 6.77177 13.9028 6.80801 13.9236C6.84426 13.9444 6.88456 13.9569 6.92607 13.9602C6.96759 13.9635 7.00932 13.9576 7.04832 13.9428C7.08732 13.9279 7.12265 13.9046 7.15182 13.8745C7.58493 13.4352 8.1 13.0879 8.66693 12.8529C9.23385 12.6179 9.84127 12.4999 10.4537 12.5058C13.0106 12.5058 14.3461 14.4582 14.3461 16.386C14.3461 18.4819 12.943 19.9562 10.9265 19.9855C9.36826 19.9855 8.19391 18.9376 8.19391 17.5535C8.19553 17.2038 8.27362 16.8588 8.42254 16.5435C8.57147 16.2281 8.78751 15.9502 9.0551 15.7298C9.11167 15.6818 9.14742 15.6133 9.15467 15.5389C9.16192 15.4645 9.14009 15.3901 9.09386 15.3319L8.3102 14.3279C8.28651 14.2975 8.25705 14.2723 8.22358 14.2537C8.19011 14.2351 8.1533 14.2234 8.11532 14.2195C8.07735 14.2155 8.03898 14.2193 8.00247 14.2307C7.96597 14.242 7.93208 14.2606 7.90279 14.2855C7.42151 14.6789 7.03313 15.1765 6.76614 15.742C6.49914 16.3075 6.3603 16.9265 6.3598 17.5535C6.3598 19.9362 8.35581 21.8054 10.9128 21.8208H10.947C13.9828 21.7807 16.1779 19.4997 16.1779 16.3821C16.1779 13.6139 14.1683 10.6667 10.4484 10.6667H10.4476Z" fill="white"/>
</svg>
