<svg width="46" height="32" viewBox="0 0 46 32" fill="none" xmlns="http://www.w3.org/2000/svg">
<rect x="0.78125" y="0.78125" width="44.4375" height="30.4375" rx="3.125" fill="white" stroke="#D9D9D9" stroke-width="1.5625"/>
<path fill-rule="evenodd" clip-rule="evenodd" d="M14.0503 21.6777H11.2636L9.17394 13.5899C9.07475 13.2178 8.86416 12.8889 8.55437 12.7339C7.78127 12.3444 6.92936 12.0343 6 11.878V11.5666H10.4892C11.1087 11.5666 11.5734 12.0343 11.6509 12.5776L12.7351 18.4116L15.5205 11.5666H18.2297L14.0503 21.6777ZM19.7786 21.6777H17.1467L19.3139 11.5666H21.9457L19.7786 21.6777ZM25.3508 14.3678C25.4282 13.8232 25.8929 13.5118 26.435 13.5118C27.2869 13.4336 28.2149 13.59 28.9894 13.9782L29.4541 11.8012C28.6796 11.4899 27.8277 11.3335 27.0546 11.3335C24.5002 11.3335 22.6415 12.734 22.6415 14.6778C22.6415 16.1565 23.9581 16.933 24.8875 17.4007C25.8929 17.8671 26.2801 18.1785 26.2027 18.6449C26.2027 19.3445 25.4282 19.6559 24.6551 19.6559C23.7258 19.6559 22.7964 19.4227 21.9459 19.0331L21.4812 21.2114C22.4105 21.5996 23.416 21.756 24.3453 21.756C27.2095 21.8328 28.9894 20.4337 28.9894 18.3335C28.9894 15.6888 25.3508 15.5338 25.3508 14.3678ZM38.2 21.6777L36.1103 11.5666H33.8657C33.401 11.5666 32.9363 11.878 32.7814 12.3444L28.9118 21.6777H31.6211L32.1619 20.2003H35.4907L35.8005 21.6777H38.2ZM34.2529 14.2895L35.026 18.1002H32.8589L34.2529 14.2895Z" fill="#172B85"/>
</svg>
