<svg width="20" height="20" viewBox="0 0 20 20" fill="none" xmlns="http://www.w3.org/2000/svg">
<g clip-path="url(#clip0_255_6876)">
<path d="M19.5465 7.0143C19.4501 6.70531 19.1213 6.53336 18.8126 6.62981C18.7741 6.64172 18.737 6.65761 18.7018 6.67723C18.4643 6.80953 18.3438 7.0941 18.428 7.36375C18.6936 8.21367 18.8281 9.10066 18.8281 10C18.8281 14.8679 14.8679 18.8281 10 18.8281C5.13215 18.8281 1.17188 14.8679 1.17188 10C1.17188 5.13215 5.13215 1.17188 10 1.17188C12.2676 1.17188 14.4333 2.04316 16.0658 3.58672L14.8096 3.27363C14.4955 3.19551 14.1775 3.38652 14.0993 3.70059C14.021 4.01465 14.212 4.33242 14.5261 4.41074L17.9018 5.25207C17.9034 5.25254 17.9053 5.25285 17.907 5.25328C18.0052 5.27687 18.1079 5.27464 18.205 5.24681C18.3022 5.21898 18.3904 5.16649 18.4613 5.09445C18.5328 5.02177 18.5841 4.93168 18.6101 4.83309C18.6361 4.73451 18.6359 4.63084 18.6096 4.53234L17.7129 1.17734C17.6293 0.864688 17.3081 0.679141 16.9956 0.762578C16.6829 0.846211 16.4972 1.16727 16.5809 1.47992L16.932 2.79355C15.076 1.00875 12.597 0 10 0C7.32895 0 4.81766 1.0402 2.92891 2.92891C1.04023 4.81766 0 7.32879 0 10C0 12.6711 1.0402 15.1823 2.92891 17.0711C4.81766 18.9598 7.32895 20 10 20C12.6711 20 15.1823 18.9598 17.0711 17.0711C18.9598 15.1823 20 12.6712 20 10C20 8.98191 19.8474 7.97746 19.5465 7.0143Z" fill="#252525"/>
<path d="M11.3361 10.4769L11.287 10.4768V7.49265C11.287 7.23953 11.1245 7.01492 10.884 6.9359C10.7667 6.8974 10.6403 6.89693 10.5227 6.93455C10.4051 6.97217 10.3024 7.04596 10.2293 7.14539L7.60629 10.7092C7.54208 10.7964 7.50329 10.8996 7.49424 11.0075C7.48518 11.1154 7.50622 11.2237 7.555 11.3203C7.60375 11.417 7.67833 11.4983 7.77048 11.5552C7.86262 11.612 7.96872 11.6422 8.07699 11.6425L10.1151 11.6464V12.5427C10.1151 12.8664 10.3776 13.1287 10.7011 13.1287C11.0247 13.1287 11.287 12.8664 11.287 12.5427V11.6487H11.335C11.6581 11.6487 11.9202 11.3872 11.921 11.064C11.9216 10.7403 11.6598 10.4776 11.3361 10.477V10.4769ZM9.23531 10.4728L10.1151 9.27718V10.4745L9.23531 10.4728Z" fill="#252525"/>
<path d="M7.03883 11.9508H5.30375C5.57902 11.6312 5.90219 11.3177 6.20375 11.0252C6.96621 10.2856 7.62477 9.64708 7.62477 8.90474C7.62477 7.78978 6.71734 6.88279 5.60192 6.88279C5.20431 6.88221 4.81541 6.99915 4.48406 7.21891C4.15271 7.43868 3.8937 7.75147 3.73957 8.11798C3.61387 8.41614 3.75363 8.75978 4.0518 8.88552C4.34981 9.01154 4.69359 8.87161 4.8193 8.57345C4.88409 8.41947 4.99294 8.28807 5.13219 8.19577C5.27144 8.10347 5.43486 8.05439 5.60192 8.0547C6.07113 8.0547 6.45273 8.43595 6.45273 8.9047C6.45273 8.91739 6.4459 9.03751 6.20695 9.3338C6.00063 9.5897 5.70293 9.87841 5.38781 10.184C4.75215 10.8006 4.0318 11.4993 3.67582 12.2984C3.63601 12.3876 3.61915 12.4854 3.62679 12.5827C3.63444 12.6801 3.66633 12.774 3.71957 12.8559C3.77274 12.9378 3.84554 13.0051 3.93136 13.0517C4.01717 13.0983 4.11328 13.1227 4.21094 13.1227H7.03867C7.36234 13.1227 7.62461 12.8604 7.62461 12.5368C7.62461 12.2133 7.3625 11.9508 7.03883 11.9508ZM14.6542 8.90763C14.4581 8.90763 14.2697 8.94427 14.0939 9.01095V7.44904C14.0939 7.1254 13.8316 6.8631 13.508 6.8631C13.1843 6.8631 12.922 7.1254 12.922 7.44904V12.551C12.922 12.8746 13.1843 13.1369 13.508 13.1369C13.8316 13.1369 14.0939 12.8746 14.0939 12.551V10.9102C14.1012 10.8731 14.1054 10.8348 14.1054 10.7956C14.1054 10.4074 14.3566 10.0795 14.6542 10.0795C14.9519 10.0795 15.2032 10.4074 15.2032 10.7956V12.5509C15.2032 12.8746 15.4655 13.1369 15.7891 13.1369C16.1128 13.1369 16.3751 12.8746 16.3751 12.5509V10.7956C16.3751 9.75462 15.6032 8.90759 14.6542 8.90759V8.90763Z" fill="#252525"/>
</g>
<defs>
<clipPath id="clip0_255_6876">
<rect width="20" height="20" fill="white"/>
</clipPath>
</defs>
</svg>
