<svg width="18" height="18" viewBox="0 0 18 18" fill="none" xmlns="http://www.w3.org/2000/svg">
<path d="M3.03788 16.7929C2.64735 17.1834 2.01419 17.1834 1.62366 16.7929L1.20711 16.3763C0.816583 15.9858 0.816583 15.3526 1.20711 14.9621L11.3467 4.82249C11.9767 4.19252 11.5305 3.11538 10.6396 3.11538H2.80769C2.25541 3.11538 1.80769 2.66767 1.80769 2.11538V1.5C1.80769 0.947715 2.25541 0.5 2.80769 0.5H16.5C17.0523 0.5 17.5 0.947715 17.5 1.5V15.1923C17.5 15.7446 17.0523 16.1923 16.5 16.1923H15.8846C15.3323 16.1923 14.8846 15.7446 14.8846 15.1923V7.36037C14.8846 6.46946 13.8075 6.0233 13.1775 6.65326L3.03788 16.7929Z" fill="white"/>
</svg>
