<svg width="12" height="12" viewBox="0 0 12 12" fill="none" xmlns="http://www.w3.org/2000/svg">
<path d="M0.646154 10.0615C0.289293 10.4184 0.289292 10.997 0.646153 11.3538C1.00301 11.7107 1.5816 11.7107 1.93846 11.3538L8.44674 4.84557C9.0767 4.2156 10.1538 4.66177 10.1538 5.55267L10.1538 10.1538C10.1538 10.6636 10.5671 11.0769 11.0769 11.0769C11.5867 11.0769 12 10.6636 12 10.1538L12 0.999999C12 0.447714 11.5523 -5.33895e-09 11 -1.19249e-08L1.84615 -1.21083e-07C1.33635 -1.27163e-07 0.923077 0.413276 0.923077 0.923076C0.923077 1.43288 1.33635 1.84615 1.84615 1.84615L6.44732 1.84615C7.33823 1.84615 7.7844 2.9233 7.15443 3.55326L0.646154 10.0615Z" fill="#252525"/>
</svg>
