<svg width="23" height="22" viewBox="0 0 23 22" fill="none" xmlns="http://www.w3.org/2000/svg">
<path d="M21.7497 9.70545C22.302 9.70545 22.7497 10.1532 22.7497 10.7054L22.7497 11.2945C22.7497 11.8468 22.302 12.2945 21.7497 12.2945L7.41009 12.2945C6.51919 12.2945 6.07303 13.3717 6.70299 14.0017L12.241 19.5397C12.6315 19.9302 12.6315 20.5634 12.241 20.9539L11.8059 21.389C11.4153 21.7796 10.7822 21.7796 10.3917 21.389L0.709727 11.7071C0.319203 11.3166 0.319204 10.6834 0.709728 10.2929L10.3917 0.610967C10.7822 0.220443 11.4153 0.220444 11.8059 0.610968L12.241 1.04611C12.6315 1.43664 12.6315 2.0698 12.241 2.46032L6.70299 7.99834C6.07302 8.62831 6.51919 9.70545 7.4101 9.70545L21.7497 9.70545Z" fill="#252525"/>
</svg>
