<svg width="25" height="25" viewBox="0 0 25 25" fill="none" xmlns="http://www.w3.org/2000/svg">
<path fill-rule="evenodd" clip-rule="evenodd" d="M9.61228 20C10.6733 20 11.5357 20.8412 11.5357 21.8762C11.5357 22.9112 10.6733 23.75 9.61228 23.75C8.55127 23.75 7.69141 22.9112 7.69141 21.8762C7.69141 20.8412 8.55127 20 9.61228 20Z" fill="#7962EE"/>
<path fill-rule="evenodd" clip-rule="evenodd" d="M17.9234 20C18.9844 20 19.8468 20.8412 19.8468 21.8762C19.8468 22.9112 18.9844 23.75 17.9234 23.75C16.8624 23.75 16 22.9112 16 21.8762C16 20.8412 16.8624 20 17.9234 20Z" fill="#7962EE"/>
<path d="M2.35938 3.5L4.49166 3.86L7.01657 15.333C7.09653 16.268 7.89716 16.986 8.85874 16.986H18.5074C19.4259 16.986 20.205 16.328 20.3372 15.44L22.606 7.74988C22.7259 6.94088 22.0831 6.21688 21.2456 6.21688L5.32324 7.03278M12.1055 11.5L13.6058 13L16.1058 10.5" stroke="#7962EE" stroke-width="1.7" stroke-linecap="round" stroke-linejoin="round"/>
</svg>
