<svg width="25" height="24" viewBox="0 0 25 24" fill="none" xmlns="http://www.w3.org/2000/svg">
<g clip-path="url(#clip0_286_8386)">
<path fill-rule="evenodd" clip-rule="evenodd" d="M9.8115 19.5002C10.8725 19.5002 11.7349 20.3415 11.7349 21.3765C11.7349 22.4115 10.8725 23.2502 9.8115 23.2502C8.75049 23.2502 7.89062 22.4115 7.89062 21.3765C7.89062 20.3415 8.75049 19.5002 9.8115 19.5002Z" fill="white"/>
<path fill-rule="evenodd" clip-rule="evenodd" d="M18.1226 19.5002C19.1836 19.5002 20.046 20.3415 20.046 21.3765C20.046 22.4115 19.1836 23.2502 18.1226 23.2502C17.0616 23.2502 16.1992 22.4115 16.1992 21.3765C16.1992 20.3415 17.0616 19.5002 18.1226 19.5002Z" fill="white"/>
<path d="M3.01562 3.24945L5.14791 3.60945L7.67282 15.0825C7.75278 16.0175 8.55341 16.7355 9.51499 16.7355H19.1636C20.0821 16.7355 20.8612 16.0775 20.9935 15.1895L23.2622 7.49933C23.3821 6.69033 22.7394 5.96633 21.9018 5.96633L5.97949 6.78223" stroke="white" stroke-width="1.7" stroke-linecap="round" stroke-linejoin="round"/>
</g>
<defs>
<clipPath id="clip0_286_8386">
<rect width="24.6033" height="24" fill="white" transform="translate(0.199219)"/>
</clipPath>
</defs>
</svg>
