<svg width="25" height="25" viewBox="0 0 25 25" fill="none" xmlns="http://www.w3.org/2000/svg">
<g clip-path="url(#clip0_86_1936)">
<path fill-rule="evenodd" clip-rule="evenodd" d="M9.80881 20.0002C10.8698 20.0002 11.7322 20.8415 11.7322 21.8765C11.7322 22.9115 10.8698 23.7502 9.80881 23.7502C8.74781 23.7502 7.88794 22.9115 7.88794 21.8765C7.88794 20.8415 8.74781 20.0002 9.80881 20.0002Z" fill="#252525"/>
<path fill-rule="evenodd" clip-rule="evenodd" d="M18.1218 20.0002C19.1828 20.0002 20.0451 20.8415 20.0451 21.8765C20.0451 22.9115 19.1828 23.7502 18.1218 23.7502C17.0607 23.7502 16.1984 22.9115 16.1984 21.8765C16.1984 20.8415 17.0607 20.0002 18.1218 20.0002Z" fill="#252525"/>
<path d="M3.01617 3.74951L5.14846 4.10951L7.67337 15.5825C7.75333 16.5175 8.55396 17.2355 9.51554 17.2355H19.1642C20.0827 17.2355 20.8618 16.5775 20.994 15.6895L23.2628 7.99939C23.3827 7.19039 22.7399 6.46639 21.9024 6.46639L5.98004 7.28229" stroke="#252525" stroke-width="1.7" stroke-linecap="round" stroke-linejoin="round"/>
</g>
<defs>
<clipPath id="clip0_86_1936">
<rect width="24.6033" height="24" fill="white" transform="translate(0.198364 0.5)"/>
</clipPath>
</defs>
</svg>
