<svg width="24" height="25" viewBox="0 0 24 25" fill="none" xmlns="http://www.w3.org/2000/svg">
<path d="M15 23.25H9C3.57 23.25 1.25 20.93 1.25 15.5V9.5C1.25 4.07 3.57 1.75 9 1.75H15C20.43 1.75 22.75 4.07 22.75 9.5V15.5C22.75 20.93 20.43 23.25 15 23.25ZM9 3.25C4.39 3.25 2.75 4.89 2.75 9.5V15.5C2.75 20.11 4.39 21.75 9 21.75H15C19.61 21.75 21.25 20.11 21.25 15.5V9.5C21.25 4.89 19.61 3.25 15 3.25H9Z" fill="#7962EE"/>
<path d="M15.5 19.75C13.98 19.75 12.75 18.52 12.75 17V8C12.75 6.48 13.98 5.25 15.5 5.25C17.02 5.25 18.25 6.48 18.25 8V17C18.25 18.52 17.02 19.75 15.5 19.75ZM15.5 6.75C14.81 6.75 14.25 7.31 14.25 8V17C14.25 17.69 14.81 18.25 15.5 18.25C16.19 18.25 16.75 17.69 16.75 17V8C16.75 7.31 16.19 6.75 15.5 6.75Z" fill="#7962EE"/>
<path d="M8.5 19.75C6.98 19.75 5.75 18.52 5.75 17V13.5C5.75 11.98 6.98 10.75 8.5 10.75C10.02 10.75 11.25 11.98 11.25 13.5V17C11.25 18.52 10.02 19.75 8.5 19.75ZM8.5 12.25C7.81 12.25 7.25 12.81 7.25 13.5V17C7.25 17.69 7.81 18.25 8.5 18.25C9.19 18.25 9.75 17.69 9.75 17V13.5C9.75 12.81 9.19 12.25 8.5 12.25Z" fill="#7962EE"/>
</svg>
