<svg width="21" height="20" viewBox="0 0 21 20" fill="none" xmlns="http://www.w3.org/2000/svg">
<path d="M19.9484 3.69998V7.29998H15.8984" stroke="#252525" stroke-width="1.8" stroke-linecap="round" stroke-linejoin="round"/>
<path d="M19.5005 7.003L18.5015 6.004C17.771 4.50382 16.6335 3.23919 15.2188 2.3544C13.8041 1.46961 12.1691 1.0003 10.5005 1C8.85005 0.998474 7.23094 1.45083 5.82025 2.3076C4.40957 3.16437 3.26165 4.39256 2.50204 5.85784C1.74242 7.32313 1.40037 8.96908 1.51328 10.6157C1.62619 12.2623 2.18971 13.8462 3.14223 15.194C4.09475 16.5419 5.39957 17.6019 6.914 18.2581C8.42843 18.9143 10.0941 19.1414 11.729 18.9146C13.3638 18.6878 14.9047 18.0158 16.1833 16.9721C17.4619 15.9285 18.4289 14.5533 18.9785 12.997" stroke="#252525" stroke-width="1.8" stroke-linecap="round" stroke-linejoin="round"/>
</svg>
