<svg width="18" height="18" viewBox="0 0 18 18" fill="none" xmlns="http://www.w3.org/2000/svg">
<path d="M9.00017 10.5H9.75017C10.5752 10.5 11.2502 9.825 11.2502 9L11.2502 1.5H4.50018C3.37518 1.5 2.39269 2.12249 1.88269 3.03749" stroke="#252525" stroke-width="1.125" stroke-linecap="round" stroke-linejoin="round"/>
<path d="M1.50023 12.75C1.50022 13.995 2.50522 15 3.75022 15H4.50022C4.50022 14.175 5.17523 13.5 6.00023 13.5C6.82523 13.5 7.50022 14.175 7.50022 15H10.5002C10.5002 14.175 11.1752 13.5 12.0002 13.5C12.8252 13.5 13.5002 14.175 13.5002 15H14.2502C15.4952 15 16.5002 13.995 16.5002 12.75L16.5002 10.5H14.2502C13.8377 10.5 13.5002 10.1625 13.5002 9.75L13.5002 7.5C13.5002 7.0875 13.8377 6.75 14.2502 6.75H15.2177L13.9353 4.50751C13.6653 4.04251 13.1703 3.75 12.6303 3.75H11.2502L11.2502 9C11.2502 9.825 10.5752 10.5 9.75023 10.5H9.00023" stroke="#252525" stroke-width="1.125" stroke-linecap="round" stroke-linejoin="round"/>
<path d="M6.00024 16.5C6.82867 16.5 7.50024 15.8284 7.50024 15C7.50024 14.1716 6.82867 13.5 6.00024 13.5C5.17182 13.5 4.50024 14.1716 4.50024 15C4.50024 15.8284 5.17181 16.5 6.00024 16.5Z" stroke="#252525" stroke-width="1.125" stroke-linecap="round" stroke-linejoin="round"/>
<path d="M12.0002 16.5C12.8287 16.5 13.5002 15.8284 13.5002 15C13.5002 14.1716 12.8287 13.5 12.0002 13.5C11.1718 13.5 10.5002 14.1716 10.5002 15C10.5002 15.8284 11.1718 16.5 12.0002 16.5Z" stroke="#252525" stroke-width="1.125" stroke-linecap="round" stroke-linejoin="round"/>
<path d="M16.5002 9L16.5002 10.5H14.2502C13.8377 10.5 13.5002 10.1625 13.5002 9.75L13.5002 7.5C13.5002 7.0875 13.8377 6.75 14.2502 6.75H15.2177L16.5002 9Z" stroke="#252525" stroke-width="1.125" stroke-linecap="round" stroke-linejoin="round"/>
<path d="M1.50024 6H6.00024" stroke="#252525" stroke-width="1.125" stroke-linecap="round" stroke-linejoin="round"/>
<path d="M1.50024 8.25H4.50024" stroke="#252525" stroke-width="1.125" stroke-linecap="round" stroke-linejoin="round"/>
<path d="M1.50024 10.5H3.00024" stroke="#252525" stroke-width="1.125" stroke-linecap="round" stroke-linejoin="round"/>
</svg>
