<svg width="53" height="58" viewBox="0 0 53 58" fill="none" xmlns="http://www.w3.org/2000/svg">
<path d="M51.8146 34.3772L51 58L0 2L18.6269 1.2971C37.1958 0.596385 52.455 15.8061 51.8146 34.3772Z" fill="#7E9E65"/>
<path d="M32.7654 24.449C32.671 24.449 32.5824 24.4341 32.4998 24.4043C32.4172 24.3746 32.3404 24.3245 32.2696 24.2542L29.2238 21.2083C29.0939 21.0785 29.0318 20.9101 29.0375 20.7033C29.0431 20.4964 29.1111 20.3283 29.2415 20.1989C29.3713 20.0691 29.5366 20.0042 29.7373 20.0042C29.938 20.0042 30.1033 20.0691 30.2331 20.1989L32.7654 22.7312L38.7685 16.7281C38.8984 16.5983 39.0668 16.5333 39.2736 16.5333C39.4804 16.5333 39.6485 16.5983 39.7779 16.7281C39.9078 16.858 39.9727 17.0263 39.9727 17.2332C39.9727 17.44 39.9078 17.6081 39.7779 17.7375L33.2613 24.2542C33.1904 24.325 33.1137 24.3753 33.031 24.405C32.9484 24.4348 32.8599 24.4494 32.7654 24.449Z" fill="white"/>
</svg>
