<svg width="24" height="25" viewBox="0 0 24 25" fill="none" xmlns="http://www.w3.org/2000/svg">
<path fill-rule="evenodd" clip-rule="evenodd" d="M11.8789 2.5C12.2931 2.5 12.6289 2.83579 12.6289 3.25V15.291C12.6289 15.7052 12.2931 16.041 11.8789 16.041C11.4647 16.041 11.1289 15.7052 11.1289 15.291V3.25C11.1289 2.83579 11.4647 2.5 11.8789 2.5Z" fill="#7962EE"/>
<path fill-rule="evenodd" clip-rule="evenodd" d="M8.4317 11.8328C8.72519 11.5405 9.20006 11.5415 9.49236 11.835L11.8769 14.2294L14.2615 11.835C14.5538 11.5415 15.0287 11.5405 15.3222 11.8328C15.6157 12.1251 15.6166 12.6 15.3244 12.8935L12.4084 15.8215C12.2676 15.9628 12.0764 16.0423 11.8769 16.0423C11.6775 16.0423 11.4863 15.9628 11.3455 15.8215L8.42952 12.8935C8.13723 12.6 8.1382 12.1251 8.4317 11.8328Z" fill="#7962EE"/>
<path fill-rule="evenodd" clip-rule="evenodd" d="M15.6232 8.68119C15.6612 8.26872 16.0264 7.96519 16.4389 8.00322C18.2861 8.17354 19.7851 8.62027 20.7547 9.92848C21.6843 11.1828 22 13.0725 22 15.75C22 19.2995 21.4432 21.4818 19.6196 22.6017C18.7505 23.1354 17.6742 23.3713 16.4422 23.4859C15.215 23.6001 13.7407 23.6001 12.0316 23.6H11.9684C10.2588 23.6001 8.78428 23.6001 7.55698 23.4859C6.32486 23.3713 5.24858 23.1354 4.37958 22.6016C2.55627 21.4817 2 19.2993 2 15.75C2 13.0726 2.31546 11.1828 3.24491 9.92852C4.21436 8.62024 5.71345 8.17353 7.56116 8.00322C7.97362 7.96519 8.33881 8.26874 8.37683 8.68121C8.41485 9.09367 8.11131 9.45886 7.69884 9.49688C5.96655 9.65656 5.02564 10.0449 4.45009 10.8216C3.83454 11.6523 3.5 13.0975 3.5 15.75C3.5 19.3008 4.09823 20.6684 5.16467 21.3235C5.74054 21.6772 6.54296 21.8851 7.69592 21.9923C8.84616 22.0993 10.2526 22.1 12 22.1C13.7469 22.1 15.1531 22.0993 16.3032 21.9923C17.4561 21.8851 18.2586 21.6772 18.8346 21.3234C19.9013 20.6683 20.5 19.3006 20.5 15.75C20.5 13.0976 20.1652 11.6523 19.5496 10.8216C18.9739 10.0448 18.0329 9.65656 16.3011 9.49688C15.8887 9.45885 15.5851 9.09365 15.6232 8.68119Z" fill="#7962EE"/>
</svg>
