<svg width="18" height="19" viewBox="0 0 18 19" fill="none" xmlns="http://www.w3.org/2000/svg">
<path d="M7.81766 2.05709C7.81766 1.63761 8.15772 1.29756 8.57719 1.29756L9.03803 1.29756C9.45751 1.29756 9.79756 1.63761 9.79756 2.05709L9.79756 13.0403C9.79756 13.717 10.6157 14.0559 11.0942 13.5774L15.3416 9.32996C15.6382 9.03335 16.1191 9.03335 16.4157 9.32996L16.7558 9.67004C17.0524 9.96665 17.0524 10.4476 16.7558 10.7442L9.34468 18.1553C9.04807 18.4519 8.56716 18.4519 8.27054 18.1553L0.859399 10.7442C0.562783 10.4476 0.562783 9.96665 0.859399 9.67004L1.19947 9.32996C1.49609 9.03335 1.977 9.03335 2.27361 9.32996L6.52106 13.5774C6.99954 14.0559 7.81766 13.717 7.81766 13.0403L7.81766 2.05709Z" fill="#252525"/>
</svg>
