<svg width="22" height="23" viewBox="0 0 22 23" fill="none" xmlns="http://www.w3.org/2000/svg">
<path d="M18.2073 7.98686C18.3242 8.43374 18.1867 8.92874 17.8567 9.25186L16.0967 11.0119L17.066 11.9812L18.826 10.2212C19.6923 9.38249 19.871 7.96624 19.2454 6.94186L19.6579 6.52936C21.4317 4.67311 18.771 2.01936 16.9148 3.78624L15.1548 5.54624L7.61979 13.0812L6.60229 16.8419L10.356 15.8381L18.2142 7.97999L18.2073 7.98686ZM17.891 4.76249C18.4067 4.25374 19.2179 5.03749 18.6885 5.56686L18.3517 5.90374L17.5542 5.10624L17.8979 4.76249H17.891ZM8.55479 14.9031L8.85041 13.8031L16.5779 6.07561L17.3754 6.87311L16.9285 7.31999L9.64104 14.6075L8.55479 14.8962V14.9031ZM20.4004 16.6494C20.4348 18.3269 18.9567 19.8119 17.2792 19.7775H4.73229C2.00979 19.8325 0.559161 16.3331 2.52541 14.4425C3.30229 13.6037 4.47104 13.4594 5.55729 13.5281V14.9031H4.73229C3.79729 14.8825 2.97229 15.7212 2.98604 16.6494C2.98604 17.6187 3.76979 18.4025 4.73229 18.4025H17.2723C18.2073 18.4231 19.0392 17.5844 19.0185 16.6494C19.0185 15.6869 18.2348 14.9031 17.2723 14.9031H13.7592V13.5281H17.2723C18.991 13.5281 20.3935 14.9306 20.3935 16.6494H20.4004Z" fill="#2F8EFF"/>
</svg>
