<svg width="40" height="40" viewBox="0 0 40 40" fill="none" xmlns="http://www.w3.org/2000/svg">
<g clip-path="url(#clip0_255_6915)">
<path d="M25.2566 17.7754L9.87765 11.419C9.77919 11.3918 9.69238 11.333 9.63052 11.2518C9.56866 11.1705 9.53516 11.0711 9.53516 10.969C9.53516 10.8669 9.56866 10.7675 9.63052 10.6862C9.69238 10.605 9.77919 10.5462 9.87765 10.519V10.5246L24.846 5.74892C24.9595 5.70235 25.0869 5.70235 25.2004 5.74892L39.6794 11.284C39.7725 11.3126 39.8543 11.3695 39.9135 11.4469C39.9726 11.5243 40.0061 11.6182 40.0092 11.7155C40.0123 11.8129 39.9848 11.9087 39.9307 11.9897C39.8767 12.0707 39.7986 12.1327 39.7075 12.1671L25.6448 17.7641C25.5851 17.7946 25.5195 17.8119 25.4525 17.8148C25.3856 17.8177 25.3188 17.8006 25.2566 17.7754Z" fill="#FF9553"/>
<path d="M10.2371 10.5527L25.6105 16.9147C25.6987 16.9501 25.7739 17.0117 25.8262 17.0911C25.8785 17.1705 25.9052 17.264 25.903 17.359V33.818C25.903 34.1556 25.5542 34.4087 25.1998 34.2231L9.81521 26.8036C9.73496 26.7649 9.66742 26.7042 9.62058 26.6284C9.57373 26.5527 9.54953 26.4651 9.55083 26.3761V10.9689C9.55083 10.6146 9.92771 10.3952 10.2371 10.5527Z" fill="#FFB048"/>
<path d="M13.1914 9.46706L20.1609 7.24515L34.6511 13.2977C34.7385 13.3275 34.8151 13.3824 34.8712 13.4557C34.9274 13.5289 34.9606 13.6172 34.9666 13.7093C34.9726 13.8014 34.9512 13.8932 34.9051 13.9731C34.8589 14.0531 34.7901 14.1175 34.7074 14.1584L33.8861 14.4846L29.656 16.1722L29.5829 16.2003C29.4774 16.2327 29.3638 16.2268 29.2623 16.1834L13.1914 9.46706Z" fill="#FF6633"/>
<path d="M25.2615 16.9147L39.3185 11.3121C39.3898 11.2754 39.4693 11.2577 39.5494 11.2606C39.6295 11.2636 39.7075 11.2871 39.7759 11.3289C39.8443 11.3707 39.9007 11.4294 39.9398 11.4994C39.979 11.5694 39.9994 11.6482 39.9992 11.7284V27.1355C40.0011 27.2261 39.9766 27.3153 39.9286 27.3922C39.8807 27.4691 39.8114 27.5304 39.7292 27.5686L25.6665 34.2287C25.5951 34.2693 25.5143 34.2903 25.4322 34.2897C25.3501 34.289 25.2697 34.2668 25.1989 34.2251C25.1282 34.1835 25.0697 34.1239 25.0293 34.0525C24.9889 33.981 24.9681 33.9002 24.969 33.8181V17.3591C24.9633 17.1678 25.0758 16.9935 25.2615 16.9147Z" fill="#FFBC5A"/>
<path d="M28.2109 15.739L34.4998 13.2359L34.9385 19.7047C34.9482 19.7967 34.9303 19.8895 34.8872 19.9713C34.8441 20.0531 34.7776 20.1202 34.6963 20.1642C34.6149 20.2082 34.5224 20.227 34.4303 20.2183C34.3382 20.2096 34.2508 20.1738 34.1792 20.1154L32.0754 18.4391L29.8366 21.9829C29.7886 22.0776 29.7098 22.1531 29.6131 22.197C29.5165 22.2409 29.4077 22.2505 29.3049 22.2243C29.202 22.1981 29.1111 22.1376 29.0472 22.0528C28.9834 21.968 28.9503 21.864 28.9534 21.7579L28.2109 15.739Z" fill="#E44B25"/>
<path d="M3.16778 19.5303C3.04321 19.5303 2.92374 19.5798 2.83566 19.6679C2.74757 19.7559 2.69809 19.8754 2.69809 20C2.69809 20.1245 2.74757 20.244 2.83566 20.3321C2.92374 20.4202 3.04321 20.4697 3.16778 20.4697H15.5261C15.6507 20.4697 15.7701 20.4202 15.8582 20.3321C15.9463 20.244 15.9958 20.1245 15.9958 20C15.9958 19.8754 15.9463 19.7559 15.8582 19.6679C15.7701 19.5798 15.6507 19.5303 15.5261 19.5303H3.16778ZM0.467742 16.4815C0.343917 16.4815 0.225164 16.5307 0.137606 16.6182C0.0500487 16.7058 0.000859458 16.8245 0.000859458 16.9484C0.000859458 17.0722 0.0500487 17.1909 0.137606 17.2785C0.225164 17.3661 0.343917 17.4153 0.467742 17.4153H12.8317C12.9563 17.4153 13.0757 17.3658 13.1638 17.2777C13.2519 17.1896 13.3014 17.0701 13.3014 16.9456C13.3014 16.821 13.2519 16.7015 13.1638 16.6134C13.0757 16.5253 12.9563 16.4759 12.8317 16.4759H0.467742V16.4815ZM0.467742 22.5847C0.343171 22.5847 0.223702 22.6342 0.135617 22.7223C0.0475324 22.8104 -0.00195312 22.9298 -0.00195312 23.0544C-0.00195312 23.179 0.0475324 23.2984 0.135617 23.3865C0.223702 23.4746 0.343171 23.5241 0.467742 23.5241H12.8317C12.9563 23.5241 13.0757 23.4746 13.1638 23.3865C13.2519 23.2984 13.3014 23.179 13.3014 23.0544C13.3014 22.9298 13.2519 22.8104 13.1638 22.7223C13.0757 22.6342 12.9563 22.5847 12.8317 22.5847H0.467742Z" fill="#FF6633"/>
<path d="M19.5142 28.3055C19.4023 28.2518 19.2737 28.2448 19.1566 28.2859C19.0395 28.327 18.9435 28.413 18.8898 28.5249C18.8361 28.6368 18.8291 28.7654 18.8702 28.8825C18.9114 28.9996 18.9973 29.0956 19.1092 29.1493L22.8724 30.9662C22.9843 31.0199 23.1129 31.027 23.23 30.9858C23.3471 30.9447 23.4431 30.8587 23.4968 30.7468C23.5505 30.6349 23.5575 30.5063 23.5164 30.3892C23.4753 30.2721 23.3893 30.1761 23.2774 30.1224L19.5142 28.3055ZM19.5142 25.7236C19.4023 25.6699 19.2737 25.6628 19.1566 25.704C19.0395 25.7451 18.9435 25.8311 18.8898 25.943C18.8361 26.0549 18.8291 26.1835 18.8702 26.3006C18.9114 26.4177 18.9973 26.5137 19.1092 26.5674L22.8724 28.3843C22.9843 28.438 23.1129 28.445 23.23 28.4039C23.3471 28.3628 23.4431 28.2768 23.4968 28.1649C23.5505 28.053 23.5575 27.9244 23.5164 27.8073C23.4753 27.6902 23.3893 27.5942 23.2774 27.5405L19.5142 25.7236Z" fill="#E44B25"/>
</g>
<defs>
<clipPath id="clip0_255_6915">
<rect width="40" height="40" fill="white"/>
</clipPath>
</defs>
</svg>
