<svg width="25" height="25" viewBox="0 0 25 25" fill="none" xmlns="http://www.w3.org/2000/svg">
<path fill-rule="evenodd" clip-rule="evenodd" d="M2.65932 13.1389C4.45332 18.7229 10.4463 21.7359 12.5023 21.7359C14.5733 21.7359 20.5863 18.7219 22.3423 13.1379C23.4923 9.54591 22.2173 4.85791 18.1513 3.54791C16.4193 2.99291 14.0463 3.19691 12.4803 4.78991C11.0293 3.39591 8.87332 2.89291 6.84232 3.54891C2.78032 4.85591 1.50732 9.54491 2.65832 13.1379L2.65932 13.1389ZM12.5023 20.2359C11.3173 20.2359 5.73432 17.8059 4.08732 12.6809C3.15632 9.77291 4.12032 6.00091 7.30232 4.97591C8.69332 4.52691 10.7253 4.77891 11.8943 6.39291C12.0393 6.59191 12.2713 6.69191 12.5183 6.70191C12.7643 6.69691 12.9923 6.57091 13.1283 6.36591C14.1943 4.74791 16.2423 4.51191 17.6923 4.97591C20.8773 6.00191 21.8433 9.77391 20.9123 12.6839C19.3013 17.8069 13.6963 20.2359 12.5023 20.2359Z" fill="#252525"/>
</svg>
