<svg width="177" height="37" viewBox="0 0 177 37" fill="none" xmlns="http://www.w3.org/2000/svg">
<path d="M13.9161 23.2585C12.8163 19.9151 11.8485 16.5277 10.7193 12.8177C17.5821 13.4043 24.1075 13.9615 31.0142 14.5481C30.2077 17.1876 29.6945 19.6951 28.6387 21.9387C28.1841 22.9359 26.7177 23.7717 25.5593 24.065C22.9051 24.7249 20.1629 24.9741 17.4501 25.4287C15.6171 25.7367 14.444 24.8715 13.9161 23.2585Z" fill="#81A5FF"/>
<path d="M36.0147 18.5073C36.0147 24.6515 32.9352 30.0919 28.2281 33.3326C27.8469 32.0275 26.6591 31.0157 25.2367 30.9277C23.521 30.825 21.9226 32.2914 21.8493 34.0071C21.82 34.755 22.0106 35.4295 22.3625 35.9721C20.9695 36.324 19.5177 36.5 18.0073 36.5C17.6701 36.5 17.3328 36.4853 17.0102 36.4707C17.5967 35.8841 17.9633 35.0629 17.9487 34.1831C17.9193 32.3794 16.365 30.8837 14.5906 30.9277C12.8456 30.9717 11.4086 32.4674 11.4086 34.2124C11.4086 34.6084 11.4819 34.9896 11.5992 35.3416C4.80978 32.7607 0 26.1912 0 18.5073C0 13.9468 1.70102 9.76762 4.50184 6.6002C5.10306 6.86416 5.54297 7.45071 5.86558 8.44786C6.52546 10.5008 7.02404 12.6124 7.66925 14.68C8.79837 18.302 9.79552 21.9827 11.2033 25.502C12.2884 28.2149 14.6053 29.3147 17.5234 28.9627C20.2509 28.6255 22.9638 28.2002 25.6619 27.7016C28.8733 27.1004 31.4395 25.59 32.422 22.2466C33.1699 19.6658 33.8444 17.0556 34.3723 14.4161C34.7536 12.5098 33.9471 11.542 32.0407 11.1607C31.3222 11.0141 30.5743 10.9701 29.8411 10.9114C23.7849 10.3982 17.7434 9.84093 11.6872 9.40102C10.2648 9.29837 9.59023 8.75581 9.12098 7.40672C8.63707 6.04297 7.97719 4.97251 7.12668 4.16599C10.1475 1.86375 13.9308 0.5 18.022 0.5C27.9495 0.5 36.0147 8.56518 36.0147 18.5073Z" fill="#81A5FF"/>
<path d="M60.7481 33.8486C59.5723 33.8486 58.041 33.8213 56.1543 33.7666C53.6934 33.7119 52.1621 33.6777 51.5606 33.6641L45.4287 33.582C44.8135 33.5957 43.9317 33.5684 42.7832 33.5C42.3867 33.4316 42.1885 33.2197 42.1885 32.8643C42.1885 31.374 42.209 29.1455 42.25 26.1787C42.3047 23.1982 42.3321 20.9629 42.3321 19.4727C42.3321 17.8867 42.2842 15.5146 42.1885 12.3564C42.0928 9.18457 42.0449 6.80566 42.0449 5.21973C42.0449 4.91895 42.25 4.76855 42.6602 4.76855C43.0703 4.76855 43.6787 4.78906 44.4854 4.83008C45.3057 4.87109 45.9141 4.8916 46.3106 4.8916C46.7617 4.8916 47.4317 4.87109 48.3203 4.83008C49.209 4.77539 49.8789 4.74805 50.3301 4.74805C50.5352 4.74805 50.6309 4.87793 50.6172 5.1377L50.5967 5.4043C50.4326 7.97461 50.2481 11.8369 50.043 16.9912L50.0225 22.4053C50.0225 24.1553 50.0293 25.4336 50.043 26.2402C50.0567 26.4043 50.0703 26.5684 50.084 26.7324C50.0977 26.8965 50.2002 26.999 50.3916 27.04C50.4053 27.04 50.583 27.04 50.9248 27.04C52.1553 27.04 53.9942 26.9785 56.4414 26.8555C58.9024 26.7188 60.7481 26.6504 61.9785 26.6504C62.3477 26.6504 62.5322 26.8076 62.5322 27.1221C62.5322 29.46 62.3613 31.4766 62.0196 33.1719C61.9512 33.5273 61.8076 33.7393 61.5889 33.8076C61.5205 33.835 61.2403 33.8486 60.7481 33.8486Z" fill="#252525"/>
<path d="M85.8291 14.8584C85.8291 15.8701 85.7813 17.3877 85.6856 19.4111C85.5899 21.4346 85.542 22.9521 85.542 23.9639C85.542 24.9482 85.5762 26.4248 85.6445 28.3936C85.7129 30.3623 85.7471 31.832 85.7471 32.8027C85.7471 33.1719 85.5762 33.4043 85.2344 33.5C84.7149 33.6367 83.6143 33.7051 81.9326 33.7051C80.4424 33.7051 79.4033 33.6641 78.8154 33.582C78.5557 33.541 78.3916 33.377 78.3233 33.0898C78.2822 32.6797 78.2412 32.2695 78.2002 31.8594C78.1319 31.2305 78.0361 30.916 77.9131 30.916C78.1045 30.916 77.4141 31.3809 75.8418 32.3105C74.2695 33.2402 72.8408 33.7051 71.5557 33.7051C67.9326 33.7051 65.7861 32.0713 65.1162 28.8037C64.8154 27.2861 64.6651 25.085 64.6651 22.2002C64.6651 19.083 64.918 16.6221 65.4238 14.8174C65.5742 14.2568 65.8545 13.9766 66.2647 13.9766C66.8936 13.9766 67.8506 13.9834 69.1358 13.9971C70.4209 14.0107 71.3779 14.0176 72.0069 14.0176C72.4307 14.0176 72.6426 14.1953 72.6426 14.5508C72.6426 14.6465 72.6289 14.79 72.6016 14.9814C72.3145 16.8408 72.1709 18.7275 72.1709 20.6416C72.1709 23.0205 72.2461 24.6475 72.3965 25.5225C72.6426 27.0264 73.5381 27.7783 75.083 27.7783C75.6846 27.7783 76.334 27.5117 77.0313 26.9785C77.7422 26.4453 78.1113 25.8916 78.1387 25.3174C78.166 24.8115 78.1797 21.3799 78.1797 15.0225C78.1797 14.5713 78.2139 14.3047 78.2822 14.2227C78.3643 14.0859 78.6104 14.0176 79.0205 14.0176C79.6904 14.0176 80.6953 14.0244 82.0352 14.0381C83.3887 14.0518 84.4004 14.0586 85.0703 14.0586C85.4805 14.0586 85.7197 14.1611 85.7881 14.3662C85.8154 14.4756 85.8291 14.6396 85.8291 14.8584Z" fill="#252525"/>
<path d="M109.823 23.2461C109.823 24.2988 109.885 25.8643 110.008 27.9424C110.131 30.0205 110.192 31.5791 110.192 32.6182C110.192 33.165 109.953 33.459 109.475 33.5C107.779 33.623 105.838 33.6846 103.65 33.6846C103.391 33.6846 103.213 33.2949 103.117 32.5156C103.035 31.7227 102.933 31.3193 102.81 31.3057C102.7 31.3604 102.557 31.4766 102.379 31.6543C100.848 33.1992 99.207 33.9717 97.457 33.9717C94.791 33.9717 92.583 32.9189 90.833 30.8135C89.1787 28.8447 88.3516 26.4932 88.3516 23.7588C88.3516 20.6006 89.2061 18.0576 90.9151 16.1299C92.6924 14.1338 95.126 13.1357 98.2158 13.1357C100.362 13.1357 102.058 13.8877 103.302 15.3916C103.356 15.46 103.404 15.4941 103.445 15.4941C103.568 15.4941 103.705 15.166 103.855 14.5098C104.02 13.8398 104.211 13.5049 104.43 13.5049C104.936 13.5049 105.899 13.6484 107.321 13.9355C108.675 14.209 109.646 14.4414 110.233 14.6328C110.438 14.7148 110.541 14.8242 110.541 14.9609C110.541 15.0156 110.521 15.1592 110.48 15.3916C110.042 17.8662 109.823 20.4844 109.823 23.2461ZM103.22 23.3691C103.22 22.207 102.851 21.25 102.112 20.498C101.388 19.7324 100.438 19.3496 99.2617 19.3496C98.086 19.3496 97.1358 19.7256 96.4111 20.4775C95.6865 21.2295 95.3242 22.1934 95.3242 23.3691C95.3242 24.4766 95.707 25.4268 96.4727 26.2197C97.2383 27.0127 98.168 27.4092 99.2617 27.4092C100.424 27.4092 101.374 27.0332 102.112 26.2812C102.851 25.5156 103.22 24.5449 103.22 23.3691Z" fill="#252525"/>
<path d="M138.616 15.6992C138.616 19.0078 137.748 21.6875 136.012 23.7383C134.152 25.9121 131.589 26.999 128.321 26.999C127.774 26.999 126.947 26.9717 125.84 26.917C124.746 26.8486 123.926 26.8145 123.379 26.8145C122.791 26.8145 122.497 27.0674 122.497 27.5732C122.497 28.2021 122.559 29.1387 122.682 30.3828C122.805 31.627 122.866 32.5566 122.866 33.1719C122.866 33.4863 122.723 33.6436 122.436 33.6436C121.602 33.6436 120.351 33.6162 118.683 33.5615C117.015 33.5205 115.764 33.5 114.93 33.5C114.533 33.5 114.335 33.3018 114.335 32.9053C114.335 31.3877 114.355 29.1113 114.396 26.0762C114.451 23.0273 114.479 20.7441 114.479 19.2266C114.479 14.9336 114.294 10.4219 113.925 5.69141L113.904 5.4043C113.877 5.14453 114.082 4.9873 114.52 4.93262C115.586 4.7959 117.938 4.72754 121.574 4.72754C123.721 4.72754 125.778 4.75488 127.747 4.80957C130.987 4.90527 133.599 5.92383 135.581 7.86523C137.605 9.86133 138.616 12.4727 138.616 15.6992ZM130.434 16.0273C130.434 12.8418 128.882 11.249 125.778 11.249C123.591 11.249 122.442 11.3721 122.333 11.6182C122.237 11.7959 122.189 13.375 122.189 16.3555C122.189 16.7793 122.203 17.4082 122.23 18.2422C122.271 19.0625 122.292 19.6846 122.292 20.1084C122.292 20.3818 123.522 20.5186 125.983 20.5186C128.95 20.5186 130.434 19.0215 130.434 16.0273Z" fill="#81A5FF"/>
<path d="M160.088 22.3643C160.088 23.7451 159.644 24.5312 158.755 24.7227C158.605 24.75 157.189 24.9004 154.51 25.1738C152.896 25.3516 150.49 25.5635 147.291 25.8096C147.482 26.6982 148.063 27.375 149.034 27.8398C149.827 28.2227 150.73 28.4141 151.741 28.4141C152.958 28.4141 154.182 28.0859 155.412 27.4297C155.932 27.1016 156.451 26.7734 156.971 26.4453C157.258 26.582 157.736 27.2793 158.406 28.5371C159.09 29.7949 159.432 30.5947 159.432 30.9365C159.432 31.0322 159.329 31.1895 159.124 31.4082C157.456 33.1992 154.865 34.0947 151.352 34.0947C148.098 34.0947 145.473 33.1445 143.477 31.2441C141.426 29.3164 140.4 26.7393 140.4 23.5127C140.4 20.3682 141.316 17.791 143.148 15.7812C145.035 13.7031 147.537 12.6641 150.654 12.6641C153.279 12.6641 155.508 13.6211 157.34 15.5352C159.172 17.4492 160.088 19.7256 160.088 22.3643ZM152.91 21.1133C152.91 20.2656 152.609 19.5205 152.008 18.8779C151.406 18.2354 150.688 17.9141 149.855 17.9141C148.993 17.9141 148.282 18.2764 147.722 19.001C147.202 19.6709 146.942 20.457 146.942 21.3594C146.942 21.7285 147.134 21.9131 147.517 21.9131C148.528 21.9131 150.101 21.7559 152.233 21.4414C152.685 21.373 152.91 21.2637 152.91 21.1133Z" fill="#81A5FF"/>
<path d="M175.94 20.7236C175.94 21.2568 175.646 21.5234 175.059 21.5234C174.799 21.5234 174.416 21.5098 173.91 21.4824C173.418 21.4414 173.049 21.4209 172.803 21.4209C171.668 21.4209 170.896 21.5986 170.485 21.9541C170.075 22.3096 169.87 23.0273 169.87 24.1074C169.87 24.6953 169.877 25.5908 169.891 26.7939C169.918 27.9834 169.932 28.8721 169.932 29.46C169.932 29.8564 169.959 30.4512 170.014 31.2441C170.068 32.0234 170.096 32.6045 170.096 32.9873C170.096 33.3154 169.87 33.5 169.419 33.541C168.763 33.5957 167.758 33.623 166.404 33.623C165.105 33.623 164.066 33.582 163.287 33.5C162.836 33.4453 162.61 33.2197 162.61 32.8232C162.61 31.7295 162.617 30.0957 162.631 27.9219C162.645 25.7344 162.651 24.0938 162.651 23C162.651 19.7871 162.357 17.1416 161.77 15.0635C161.742 14.9404 161.729 14.8379 161.729 14.7559C161.729 14.5508 161.831 14.4141 162.036 14.3457C162.788 14.2637 163.889 14.1133 165.338 13.8945C167.498 13.4707 168.612 13.2588 168.681 13.2588C168.927 13.2588 169.084 13.6895 169.152 14.5508C169.221 15.4121 169.344 15.8428 169.521 15.8428C169.33 15.8428 169.891 15.4873 171.203 14.7764C172.516 14.0518 173.78 13.6895 174.997 13.6895C175.763 13.6895 176.146 13.8535 176.146 14.1816C176.146 14.5781 176.105 15.1387 176.022 15.8633C175.94 16.6426 175.893 17.2031 175.879 17.5449C175.879 17.9414 175.886 18.4678 175.899 19.124C175.927 19.9307 175.94 20.4639 175.94 20.7236Z" fill="#81A5FF"/>
</svg>
