<svg width="25" height="25" viewBox="0 0 25 25" fill="none" xmlns="http://www.w3.org/2000/svg">
<path fill-rule="evenodd" clip-rule="evenodd" d="M7.06025 4.8939C8.22169 3.39651 10.0215 2.26416 12.4962 2.26416C14.9705 2.26416 16.7702 3.39654 17.9318 4.89386C19.075 6.36761 19.6072 8.19867 19.6072 9.68368C19.6072 10.1099 19.5942 10.4264 19.5844 10.6665C19.5824 10.7159 19.5805 10.762 19.5788 10.8052C19.5692 11.0635 19.5711 11.1876 19.591 11.3105C19.6362 11.5901 19.7792 11.9345 20.3506 13.1938C20.3563 13.2064 20.3617 13.2191 20.3667 13.232C20.7795 14.2945 20.6872 15.2719 20.1962 16.1001C19.7276 16.8904 18.9401 17.4724 18.0889 17.8971C16.3866 18.7463 14.1362 19.1118 12.4962 19.1118C10.8558 19.1118 8.60515 18.7463 6.90283 17.8971C6.05157 17.4724 5.26406 16.8904 4.79564 16.1C4.30475 15.2717 4.21265 14.2943 4.62576 13.2319C4.63076 13.219 4.6361 13.2063 4.6418 13.1938C5.21321 11.9345 5.35623 11.5901 5.4014 11.3105C5.42126 11.1876 5.42322 11.0635 5.41356 10.8052C5.41194 10.762 5.41005 10.7159 5.40803 10.6665C5.3982 10.4264 5.38525 10.1099 5.38525 9.68368C5.38525 8.19875 5.9171 6.36768 7.06025 4.8939ZM8.2455 5.81323C7.31673 7.01064 6.88525 8.51433 6.88525 9.68368C6.88525 10.0768 6.89683 10.3608 6.90658 10.5998C6.90869 10.6515 6.91071 10.701 6.91251 10.7491C6.92246 11.015 6.92769 11.2681 6.8822 11.5497C6.79769 12.0728 6.54077 12.639 6.0268 13.7716L6.01677 13.7937C5.76789 14.4464 5.84773 14.9331 6.08605 15.3353C6.34906 15.7791 6.85322 16.196 7.57243 16.5548C9.01107 17.2725 11.0167 17.6118 12.4962 17.6118C13.9752 17.6118 15.9806 17.2725 17.4193 16.5548C18.1385 16.196 18.6427 15.779 18.9059 15.3352C19.1443 14.9329 19.2242 14.4462 18.9756 13.7936L18.9656 13.7716C18.4516 12.639 18.1947 12.0728 18.1102 11.5497C18.0647 11.2681 18.07 11.015 18.0799 10.7491C18.0817 10.701 18.0837 10.6515 18.0858 10.5998C18.0956 10.3608 18.1072 10.0768 18.1072 9.68368C18.1072 8.51441 17.6755 7.01071 16.7466 5.81327C15.836 4.6394 14.4553 3.76416 12.4962 3.76416C10.5366 3.76416 9.15595 4.63943 8.2455 5.81323Z" fill="#252525"/>
<path fill-rule="evenodd" clip-rule="evenodd" d="M9.68641 20.4529C9.99534 20.1769 10.4695 20.2037 10.7454 20.5126C11.751 21.6384 13.2482 21.6279 14.2473 20.512C14.5235 20.2033 14.9977 20.1771 15.3063 20.4534C15.6149 20.7297 15.6411 21.2039 15.3648 21.5125C13.7754 23.2879 11.2345 23.3118 9.62669 21.5118C9.35076 21.2029 9.37749 20.7288 9.68641 20.4529Z" fill="#252525"/>
</svg>
