<svg width="24" height="25" viewBox="0 0 24 25" fill="none" xmlns="http://www.w3.org/2000/svg">
<path fill-rule="evenodd" clip-rule="evenodd" d="M0.75 8.75C0.75 5.8505 3.1005 3.5 6 3.5H18C20.8995 3.5 23.25 5.8505 23.25 8.75V16.25C23.25 19.1495 20.8995 21.5 18 21.5H6C3.1005 21.5 0.75 19.1495 0.75 16.25V8.75ZM2.325 8H21.675C21.3274 6.2885 19.8142 5 18 5H6C4.18575 5 2.67262 6.2885 2.325 8ZM21.75 9.5H2.25V16.25C2.25 18.3211 3.92887 20 6 20H18C20.0711 20 21.75 18.3211 21.75 16.25V9.5Z" fill="#7962EE"/>
<path d="M4.5 11C4.30109 11 4.11032 11.079 3.96967 11.2197C3.82902 11.3603 3.75 11.5511 3.75 11.75C3.75 11.9489 3.82902 12.1397 3.96967 12.2803C4.11032 12.421 4.30109 12.5 4.5 12.5H7.5C7.69891 12.5 7.88968 12.421 8.03033 12.2803C8.17098 12.1397 8.25 11.9489 8.25 11.75C8.25 11.5511 8.17098 11.3603 8.03033 11.2197C7.88968 11.079 7.69891 11 7.5 11H4.5Z" fill="#7962EE"/>
</svg>
