<svg width="23" height="23" viewBox="0 0 23 23" fill="none" xmlns="http://www.w3.org/2000/svg">
<path d="M19.281 8.40493C19.3993 8.86332 19.2602 9.37107 18.9264 9.70252L17.1461 11.5079L18.1267 12.5022L19.9069 10.6969C20.7831 9.83651 20.9639 8.38377 20.3311 7.333L20.7484 6.90988C22.5425 5.0058 19.8513 2.28367 17.9737 4.09607L16.1934 5.90142L8.57168 13.6306L7.54247 17.4881L11.3394 16.4585L19.288 8.39788L19.281 8.40493ZM18.9611 5.09748C19.4827 4.57562 20.3033 5.37956 19.7678 5.92258L19.4271 6.26813L18.6204 5.45008L18.9681 5.09748H18.9611ZM9.51745 15.4994L9.81647 14.371L17.6329 6.44443L18.4396 7.26248L17.9876 7.72087L10.6162 15.1961L9.51745 15.4923V15.4994ZM21.4994 17.2906C21.5342 19.0113 20.039 20.5346 18.3422 20.4993H5.65095C2.89712 20.5558 1.4298 16.9662 3.41868 15.0269C4.20449 14.1665 5.38669 14.0184 6.48545 14.089V15.4994H5.65095C4.70519 15.4782 3.87069 16.3386 3.8846 17.2906C3.8846 18.285 4.67737 19.0889 5.65095 19.0889H18.3353C19.281 19.1101 20.1225 18.2497 20.1016 17.2906C20.1016 16.3033 19.3089 15.4994 18.3353 15.4994H14.7817V14.089H18.3353C20.0738 14.089 21.4925 15.5276 21.4925 17.2906H21.4994Z" fill="#2F8EFF"/>
</svg>
