<svg width="24" height="20" viewBox="0 0 24 20" fill="none" xmlns="http://www.w3.org/2000/svg">
<path d="M6.70117 7.71667L12.0012 10.275L17.2612 7.73334" stroke="#252525" stroke-width="1.5" stroke-linecap="round" stroke-linejoin="round"/>
<path d="M12.002 14.8083V10.2667" stroke="#252525" stroke-width="1.5" stroke-linecap="round" stroke-linejoin="round"/>
<path d="M10.7603 5.24169L7.56024 6.72502C6.84024 7.05836 6.24023 7.90002 6.24023 8.59169V11.4167C6.24023 12.1084 6.83024 12.95 7.56024 13.2834L10.7603 14.7667C11.4403 15.0834 12.5602 15.0834 13.2502 14.7667L16.4503 13.2834C17.1703 12.95 17.7702 12.1084 17.7702 11.4167V8.58336C17.7702 7.89169 17.1803 7.05002 16.4503 6.71669L13.2502 5.23335C12.5602 4.91669 11.4403 4.91669 10.7603 5.24169Z" stroke="#252525" stroke-width="1.5" stroke-linecap="round" stroke-linejoin="round"/>
<path d="M22 12.5C22 15.725 18.87 18.3333 15 18.3333L16.05 16.875" stroke="#252525" stroke-width="1.5" stroke-linecap="round" stroke-linejoin="round"/>
<path d="M2 7.50002C2 4.27502 5.13 1.66669 9 1.66669L7.95001 3.12502" stroke="#252525" stroke-width="1.5" stroke-linecap="round" stroke-linejoin="round"/>
</svg>
