<svg width="24" height="24" viewBox="0 0 24 24" fill="none" xmlns="http://www.w3.org/2000/svg">
<g clip-path="url(#clip0_324_15201)">
<path d="M23.0324 21.9675L17.8949 16.8375C19.5356 14.9234 20.3711 12.4481 20.226 9.93125C20.081 7.41434 18.9666 5.05148 17.1168 3.33853C15.2671 1.62558 12.8257 0.695725 10.3051 0.744107C7.78446 0.79249 5.38057 1.81535 3.5979 3.59802C1.81523 5.38069 0.792368 7.78458 0.743985 10.3052C0.695603 12.8258 1.62546 15.2672 3.33841 17.117C5.05136 18.9667 7.41422 20.0811 9.93112 20.2262C12.448 20.3712 14.9233 19.5357 16.8374 17.895L21.9674 23.0325C22.0371 23.1028 22.1201 23.1586 22.2115 23.1967C22.3029 23.2348 22.4009 23.2544 22.4999 23.2544C22.5989 23.2544 22.697 23.2348 22.7884 23.1967C22.8798 23.1586 22.9627 23.1028 23.0324 23.0325C23.1027 22.9628 23.1585 22.8799 23.1966 22.7885C23.2347 22.6971 23.2543 22.5991 23.2543 22.5C23.2543 22.401 23.2347 22.303 23.1966 22.2116C23.1585 22.1202 23.1027 22.0373 23.0324 21.9675ZM2.24992 10.5C2.24992 8.86835 2.73378 7.2733 3.6403 5.91659C4.54682 4.55989 5.8353 3.50246 7.34279 2.87804C8.85028 2.25362 10.5091 2.09024 12.1094 2.40857C13.7098 2.7269 15.1798 3.51263 16.3336 4.66642C17.4873 5.8202 18.2731 7.29021 18.5914 8.89055C18.9097 10.4909 18.7464 12.1497 18.1219 13.6572C17.4975 15.1647 16.4401 16.4531 15.0834 17.3597C13.7267 18.2662 12.1316 18.75 10.4999 18.75C8.31189 18.75 6.21347 17.8809 4.66629 16.3337C3.11912 14.7865 2.24992 12.6881 2.24992 10.5Z" fill="#252525"/>
<path d="M15 9.75006H11.25V6.00006C11.25 5.80115 11.171 5.61038 11.0303 5.46973C10.8897 5.32908 10.6989 5.25006 10.5 5.25006C10.3011 5.25006 10.1103 5.32908 9.96967 5.46973C9.82902 5.61038 9.75 5.80115 9.75 6.00006V9.75006H6C5.80109 9.75006 5.61032 9.82908 5.46967 9.96973C5.32902 10.1104 5.25 10.3011 5.25 10.5001C5.25 10.699 5.32902 10.8897 5.46967 11.0304C5.61032 11.171 5.80109 11.2501 6 11.2501H9.75V15.0001C9.75 15.199 9.82902 15.3897 9.96967 15.5304C10.1103 15.671 10.3011 15.7501 10.5 15.7501C10.6989 15.7501 10.8897 15.671 11.0303 15.5304C11.171 15.3897 11.25 15.199 11.25 15.0001V11.2501H15C15.1989 11.2501 15.3897 11.171 15.5303 11.0304C15.671 10.8897 15.75 10.699 15.75 10.5001C15.75 10.3011 15.671 10.1104 15.5303 9.96973C15.3897 9.82908 15.1989 9.75006 15 9.75006Z" fill="#252525"/>
</g>
<defs>
<clipPath id="clip0_324_15201">
<rect width="24" height="24" fill="white"/>
</clipPath>
</defs>
</svg>
