<svg width="23" height="23" viewBox="0 0 23 23" fill="none" xmlns="http://www.w3.org/2000/svg">
<path fill-rule="evenodd" clip-rule="evenodd" d="M10.7426 0C16.666 0 21.4841 4.81812 21.4841 10.7415C21.4841 13.5361 20.4116 16.085 18.6566 17.9979L22.11 21.444C22.4332 21.7672 22.4343 22.2901 22.1111 22.6133C21.95 22.7765 21.7371 22.8571 21.5253 22.8571C21.3147 22.8571 21.1029 22.7765 20.9407 22.6155L17.4457 19.1302C15.6071 20.6026 13.2759 21.4841 10.7426 21.4841C4.81922 21.4841 0 16.6649 0 10.7415C0 4.81812 4.81922 0 10.7426 0ZM10.7426 1.65457C5.73144 1.65457 1.65457 5.73034 1.65457 10.7415C1.65457 15.7526 5.73144 19.8295 10.7426 19.8295C15.7526 19.8295 19.8295 15.7526 19.8295 10.7415C19.8295 5.73034 15.7526 1.65457 10.7426 1.65457Z" fill="#C8C8C8"/>
</svg>
