<svg width="24" height="24" viewBox="0 0 24 24" fill="none" xmlns="http://www.w3.org/2000/svg">
<path fill-rule="evenodd" clip-rule="evenodd" d="M11.5661 0.571533C17.4895 0.571533 22.3076 5.38965 22.3076 11.313C22.3076 14.1077 21.2351 16.6565 19.4801 18.5694L22.9334 22.0156C23.2566 22.3388 23.2577 22.8616 22.9345 23.1848C22.7735 23.3481 22.5606 23.4286 22.3488 23.4286C22.1381 23.4286 21.9264 23.3481 21.7642 23.187L18.2692 19.7017C16.4306 21.1741 14.0994 22.0556 11.5661 22.0556C5.64271 22.0556 0.823486 17.2364 0.823486 11.313C0.823486 5.38965 5.64271 0.571533 11.5661 0.571533ZM11.5661 2.22611C6.55493 2.22611 2.47806 6.30187 2.47806 11.313C2.47806 16.3242 6.55493 20.401 11.5661 20.401C16.5761 20.401 20.653 16.3242 20.653 11.313C20.653 6.30187 16.5761 2.22611 11.5661 2.22611Z" fill="#252525"/>
</svg>
