<svg width="25" height="24" viewBox="0 0 25 24" fill="none" xmlns="http://www.w3.org/2000/svg">
<path d="M19.4875 16.3642C19.393 16.3641 19.2994 16.3827 19.2121 16.4189C19.1248 16.455 19.0455 16.508 18.9787 16.5748C18.9118 16.6416 18.8588 16.721 18.8227 16.8083C18.7866 16.8956 18.768 16.9892 18.768 17.0836C18.768 17.3619 18.6072 17.6499 18.3365 17.6499H3.45261C3.18349 17.6499 2.93896 17.38 2.93896 17.0836V7.58319L9.24793 13.917C9.70195 14.371 10.2977 14.5973 10.8943 14.5973C11.4908 14.5973 12.0874 14.3702 12.5419 13.9165L18.768 7.66635V8.65652C18.768 8.84734 18.8438 9.03034 18.9787 9.16527C19.1137 9.3002 19.2967 9.376 19.4875 9.376C19.6783 9.376 19.8613 9.3002 19.9962 9.16527C20.1312 9.03034 20.207 8.84734 20.207 8.65652V7.27798C20.207 6.17771 19.3855 5.31543 18.3365 5.31543H3.45261C2.37614 5.31517 1.5 6.19549 1.5 7.27771V17.0836C1.5 18.1706 2.39444 19.0891 3.45261 19.0891H18.3367C19.3857 19.0891 20.2072 18.208 20.2072 17.0836C20.2071 16.8928 20.1312 16.7099 19.9962 16.575C19.8613 16.4401 19.6783 16.3642 19.4875 16.3642ZM11.5233 12.8994C11.3567 13.0659 11.1308 13.1595 10.8952 13.1596C10.6597 13.1598 10.4337 13.0665 10.2669 12.9002L4.14489 6.75413H17.6445L11.5233 12.8994Z" fill="white"/>
<path d="M23.7863 12.5043L21.5562 10.2742C21.4894 10.2074 21.4101 10.1544 21.3228 10.1183C21.2356 10.0821 21.142 10.0635 21.0475 10.0635C20.953 10.0635 20.8595 10.0821 20.7722 10.1183C20.6849 10.1544 20.6056 10.2074 20.5388 10.2742C20.472 10.341 20.419 10.4203 20.3828 10.5076C20.3467 10.5949 20.3281 10.6885 20.3281 10.7829C20.3281 10.8774 20.3467 10.971 20.3828 11.0582C20.419 11.1455 20.472 11.2248 20.5388 11.2916L21.5366 12.2894H16.9187C16.7279 12.2894 16.5449 12.3652 16.4099 12.5001C16.275 12.635 16.1992 12.818 16.1992 13.0088C16.1992 13.1997 16.275 13.3827 16.4099 13.5176C16.5449 13.6525 16.7279 13.7283 16.9187 13.7283H21.5899L20.5922 14.7261C20.4915 14.8266 20.4229 14.9548 20.395 15.0944C20.3672 15.234 20.3814 15.3787 20.4359 15.5102C20.4904 15.6417 20.5826 15.7541 20.701 15.8332C20.8194 15.9122 20.9585 15.9543 21.1009 15.9542C21.285 15.9542 21.4691 15.8839 21.6096 15.7434L23.7863 13.5675C24.0675 13.2863 24.0675 12.7855 23.7863 12.5043Z" fill="white"/>
</svg>
