<svg width="20" height="20" viewBox="0 0 20 20" fill="none" xmlns="http://www.w3.org/2000/svg">
<path d="M10.0001 11.6667H10.8335C11.7501 11.6667 12.5001 10.9167 12.5001 10V1.66669H5.00012C3.75012 1.66669 2.65846 2.35834 2.0918 3.37501" stroke="#252525" stroke-width="1.125" stroke-linecap="round" stroke-linejoin="round"/>
<path d="M1.66602 14.1666C1.66602 15.55 2.78268 16.6666 4.16602 16.6666H4.99935C4.99935 15.75 5.74935 15 6.66602 15C7.58268 15 8.33268 15.75 8.33268 16.6666H11.666C11.666 15.75 12.416 15 13.3327 15C14.2493 15 14.9993 15.75 14.9993 16.6666H15.8327C17.216 16.6666 18.3327 15.55 18.3327 14.1666V11.6666H15.8327C15.3743 11.6666 14.9993 11.2916 14.9993 10.8333V8.33329C14.9993 7.87496 15.3743 7.49996 15.8327 7.49996H16.9077L15.4827 5.0083C15.1827 4.49163 14.6327 4.16663 14.0327 4.16663H12.4993V9.99996C12.4993 10.9166 11.7493 11.6666 10.8327 11.6666H9.99935" stroke="#252525" stroke-width="1.125" stroke-linecap="round" stroke-linejoin="round"/>
<path d="M6.66667 18.3333C7.58714 18.3333 8.33333 17.5871 8.33333 16.6667C8.33333 15.7462 7.58714 15 6.66667 15C5.74619 15 5 15.7462 5 16.6667C5 17.5871 5.74619 18.3333 6.66667 18.3333Z" stroke="#252525" stroke-width="1.125" stroke-linecap="round" stroke-linejoin="round"/>
<path d="M13.3327 18.3333C14.2532 18.3333 14.9993 17.5871 14.9993 16.6667C14.9993 15.7462 14.2532 15 13.3327 15C12.4122 15 11.666 15.7462 11.666 16.6667C11.666 17.5871 12.4122 18.3333 13.3327 18.3333Z" stroke="#252525" stroke-width="1.125" stroke-linecap="round" stroke-linejoin="round"/>
<path d="M18.3333 10V11.6667H15.8333C15.375 11.6667 15 11.2917 15 10.8333V8.33333C15 7.875 15.375 7.5 15.8333 7.5H16.9083L18.3333 10Z" stroke="#252525" stroke-width="1.125" stroke-linecap="round" stroke-linejoin="round"/>
<path d="M1.66602 6.66663H6.66602" stroke="#252525" stroke-width="1.125" stroke-linecap="round" stroke-linejoin="round"/>
<path d="M1.66602 9.16663H4.99935" stroke="#252525" stroke-width="1.125" stroke-linecap="round" stroke-linejoin="round"/>
<path d="M1.66602 11.6666H3.33268" stroke="#252525" stroke-width="1.125" stroke-linecap="round" stroke-linejoin="round"/>
</svg>
