<svg width="25" height="25" viewBox="0 0 25 25" fill="none" xmlns="http://www.w3.org/2000/svg">
<path fill-rule="evenodd" clip-rule="evenodd" d="M7.44067 14.4058C7.67371 14.6351 7.77995 14.9638 7.72519 15.2861L7.04643 19.2808C6.90741 20.0989 7.76799 20.7206 8.50106 20.3316L12.0313 18.4582C12.3245 18.3026 12.6757 18.3026 12.9688 18.4582L16.4991 20.3316C17.2322 20.7206 18.0928 20.0989 17.9537 19.2808L17.275 15.2861C17.2202 14.9638 17.3265 14.6351 17.5595 14.4058L20.4417 11.57C21.0305 10.9906 20.7027 9.98762 19.8854 9.86774L15.9188 9.28593C15.5923 9.23805 15.3105 9.03219 15.1655 8.73576L13.3985 5.1216C13.0329 4.37392 11.9673 4.37392 11.6017 5.12159L9.83464 8.73576C9.68971 9.03219 9.40787 9.23805 9.08139 9.28593L5.11476 9.86774C4.29744 9.98762 3.9697 10.9906 4.55852 11.57L7.44067 14.4058Z" fill="#F99D49"/>
</svg>
