<svg width="25" height="24" viewBox="0 0 25 24" fill="none" xmlns="http://www.w3.org/2000/svg">
<path fill-rule="evenodd" clip-rule="evenodd" d="M7.44067 14.1216C7.67371 14.3509 7.77995 14.6796 7.72519 15.0019L7.04643 18.9965C6.90741 19.8147 7.76799 20.4364 8.50106 20.0474L12.0313 18.174C12.3245 18.0184 12.6757 18.0184 12.9688 18.174L16.4991 20.0474C17.2322 20.4364 18.0928 19.8147 17.9537 18.9965L17.275 15.0019C17.2202 14.6796 17.3265 14.3509 17.5595 14.1216L20.4417 11.2857C21.0305 10.7064 20.7027 9.70339 19.8854 9.58351L15.9188 9.00171C15.5923 8.95382 15.3105 8.74797 15.1655 8.45153L13.3985 4.83737C13.0329 4.08969 11.9673 4.08969 11.6017 4.83737L9.83464 8.45153C9.68971 8.74797 9.40787 8.95382 9.08139 9.00171L5.11476 9.58351C4.29744 9.70339 3.9697 10.7064 4.55852 11.2857L7.44067 14.1216Z" fill="#F99D49"/>
</svg>
