<svg width="41" height="24" viewBox="0 0 41 24" fill="none" xmlns="http://www.w3.org/2000/svg">
<path d="M7.44164 8.0628C6.96431 8.60324 6.20059 9.0295 5.43687 8.9686C5.3414 8.23787 5.71531 7.46147 6.15286 6.98192C6.63018 6.42626 7.46551 6.03045 8.14172 6C8.22128 6.76118 7.91101 7.50714 7.44164 8.0628ZM8.13377 9.11323C7.02796 9.05233 6.08126 9.71456 5.5562 9.71456C5.02318 9.71456 4.21968 9.14367 3.34458 9.1589C2.20695 9.17412 1.14887 9.79068 0.568127 10.7726C-0.625192 12.7364 0.257864 15.6441 1.41141 17.2426C1.97624 18.0343 2.65246 18.902 3.54347 18.8716C4.38675 18.8411 4.72087 18.3463 5.73917 18.3463C6.76543 18.3463 7.05978 18.8716 7.95079 18.8563C8.87362 18.8411 9.45437 18.0647 10.0192 17.2731C10.6636 16.3749 10.9261 15.4995 10.942 15.4539C10.9261 15.4386 9.16002 14.7916 9.14411 12.843C9.1282 11.2141 10.5363 10.4377 10.6 10.392C9.80441 9.26546 8.56336 9.14367 8.13377 9.11323ZM14.522 6.9058V18.7726H16.4472V14.7155H19.1123C21.5467 14.7155 23.2571 13.117 23.2571 10.803C23.2571 8.48906 21.5785 6.9058 19.1759 6.9058H14.522ZM16.4472 8.45861H18.6668C20.3374 8.45861 21.2921 9.31113 21.2921 10.8107C21.2921 12.3102 20.3374 13.1703 18.6588 13.1703H16.4472V8.45861ZM26.7734 18.8639C27.9826 18.8639 29.1043 18.2778 29.6135 17.3492H29.6533V18.7726H31.4353V12.8658C31.4353 11.1532 30.0033 10.0495 27.7997 10.0495C25.7551 10.0495 24.2436 11.1684 24.1879 12.706H25.9222C26.0654 11.9753 26.7734 11.4957 27.744 11.4957C28.9214 11.4957 29.5817 12.0209 29.5817 12.9876V13.6422L27.1791 13.7793C24.9436 13.9087 23.7344 14.784 23.7344 16.3064C23.7344 17.844 24.9834 18.8639 26.7734 18.8639ZM27.2905 17.4558C26.2642 17.4558 25.6119 16.9838 25.6119 16.2607C25.6119 15.5147 26.2404 15.0809 27.4417 15.0124L29.5817 14.883V15.5528C29.5817 16.6641 28.5952 17.4558 27.2905 17.4558ZM33.814 22C35.6915 22 36.5745 21.3149 37.3462 19.2369L40.7273 10.1637H38.7702L36.5029 17.1741H36.4631L34.1958 10.1637H32.1831L35.4448 18.803L35.2698 19.3283C34.9755 20.2188 34.4981 20.5614 33.6469 20.5614C33.4958 20.5614 33.2014 20.5461 33.0821 20.5309V21.9543C33.1935 21.9848 33.6708 22 33.814 22Z" fill="#252525"/>
</svg>
