<svg width="108" height="16" viewBox="0 0 108 16" fill="none" xmlns="http://www.w3.org/2000/svg">
<g clip-path="url(#clip0_251_6598)">
<path d="M21.75 0.25H2.25C1.14543 0.25 0.25 1.14543 0.25 2.25V13.75C0.25 14.8546 1.14543 15.75 2.25 15.75H21.75C22.8546 15.75 23.75 14.8546 23.75 13.75V2.25C23.75 1.14543 22.8546 0.25 21.75 0.25Z" fill="white" stroke="black" stroke-opacity="0.2" stroke-width="0.5"/>
<path d="M2.78773 5.91444C2.26459 5.62751 1.66754 5.39674 1 5.23659L1.028 5.11188H3.76498C4.13596 5.12489 4.43699 5.23651 4.53495 5.63071L5.12977 8.46659L5.31198 9.32073L6.97797 5.11188H8.77679L6.10288 11.2775H4.30397L2.78773 5.91444ZM10.1 11.2841H8.39883L9.46285 5.11188H11.1639L10.1 11.2841ZM16.2668 5.26277L16.0354 6.59559L15.8816 6.53004C15.5737 6.40525 15.1674 6.28054 14.6144 6.29371C13.9427 6.29371 13.6415 6.56277 13.6345 6.82546C13.6345 7.11441 13.9989 7.30484 14.5939 7.58725C15.574 8.02719 16.0286 8.56557 16.0218 9.26819C16.0081 10.5486 14.846 11.3761 13.0611 11.3761C12.2979 11.3694 11.5628 11.2181 11.1638 11.0476L11.4019 9.66205L11.6259 9.76066C12.1789 9.99071 12.5428 10.089 13.222 10.089C13.7118 10.089 14.2369 9.89838 14.2436 9.48488C14.2436 9.21565 14.0199 9.01851 13.3617 8.71646C12.7178 8.42087 11.8568 7.92848 11.8708 7.04198C11.8781 5.84042 13.0611 5 14.741 5C15.399 5 15.9312 5.13789 16.2668 5.26277ZM18.5278 9.09749H19.9417C19.8718 8.78889 19.5496 7.31147 19.5496 7.31147L19.4307 6.77964C19.3467 7.00943 19.1999 7.38373 19.2069 7.37056C19.2069 7.37056 18.6678 8.7429 18.5278 9.09749ZM20.6276 5.11188L22 11.284H20.4249C20.4249 11.284 20.2708 10.5748 20.2219 10.3581H18.0378C17.9746 10.5222 17.6808 11.284 17.6808 11.284H15.8958L18.4226 5.62399C18.5977 5.22342 18.906 5.11188 19.3118 5.11188H20.6276Z" fill="#171E6C"/>
</g>
<g clip-path="url(#clip1_251_6598)">
<path d="M50 0H30C28.8954 0 28 0.89543 28 2V14C28 15.1046 28.8954 16 30 16H50C51.1046 16 52 15.1046 52 14V2C52 0.89543 51.1046 0 50 0Z" fill="#252525"/>
<path d="M37 13C39.7614 13 42 10.7614 42 8C42 5.23858 39.7614 3 37 3C34.2386 3 32 5.23858 32 8C32 10.7614 34.2386 13 37 13Z" fill="#EB001B"/>
<path d="M43 13C45.7614 13 48 10.7614 48 8C48 5.23858 45.7614 3 43 3C40.2386 3 38 5.23858 38 8C38 10.7614 40.2386 13 43 13Z" fill="#F79E1B"/>
<path fill-rule="evenodd" clip-rule="evenodd" d="M40 3.99963C41.2144 4.91184 42 6.36418 42 8C42 9.63582 41.2144 11.0882 40 12.0004C38.7856 11.0882 38 9.63582 38 8C38 6.36418 38.7856 4.91184 40 3.99963Z" fill="#FF5F00"/>
</g>
<g clip-path="url(#clip2_251_6598)">
<path d="M78 0H58C56.8954 0 56 0.89543 56 2V14C56 15.1046 56.8954 16 58 16H78C79.1046 16 80 15.1046 80 14V2C80 0.89543 79.1046 0 78 0Z" fill="#016FD0"/>
<path fill-rule="evenodd" clip-rule="evenodd" d="M69.7656 13.3939V7.69247L79.9132 7.70158V9.27647L78.7403 10.5299L79.9132 11.7948V13.4031H78.0405L77.0454 12.3049L76.0572 13.4072L69.7656 13.3939Z" fill="#FFFFFE"/>
<path fill-rule="evenodd" clip-rule="evenodd" d="M70.4414 12.7688V8.31992H74.2137V9.3448H71.6628V10.0405H74.1529V11.0483H71.6628V11.7316H74.2137V12.7688H70.4414Z" fill="#016FD0"/>
<path fill-rule="evenodd" clip-rule="evenodd" d="M74.1954 12.7688L76.2827 10.5418L74.1953 8.32001H75.811L77.0865 9.73004L78.3656 8.32001H79.9117V8.35501L77.8689 10.5418L79.9117 12.7057V12.7688H78.35L77.0519 11.3446L75.7671 12.7688H74.1954Z" fill="#016FD0"/>
<path fill-rule="evenodd" clip-rule="evenodd" d="M70.2388 2.63196H72.6849L73.544 4.58281V2.63196H76.5639L77.0846 4.09353L77.6071 2.63196H79.9131V8.33335H67.7266L70.2388 2.63196Z" fill="#FFFFFE"/>
<path fill-rule="evenodd" clip-rule="evenodd" d="M70.7006 3.25134L68.7266 7.69651H70.0805L70.4529 6.80635H72.4708L72.843 7.69651H74.2306L72.2648 3.25134H70.7006ZM70.8702 5.80878L71.4622 4.39371L72.0538 5.80878H70.8702Z" fill="#016FD0"/>
<path fill-rule="evenodd" clip-rule="evenodd" d="M74.2109 7.69572V3.25064L76.1141 3.25718L77.0933 5.98991L78.079 3.25064H79.9106V7.69572L78.732 7.70615V4.65281L77.6194 7.69572H76.5436L75.4079 4.64238V7.69572H74.2109Z" fill="#016FD0"/>
</g>
<g clip-path="url(#clip3_251_6598)">
<path d="M105.997 15.7499L105.999 15.7499C106.954 15.7581 107.738 14.9773 107.75 14.0042L107.75 2.0063C107.746 1.53569 107.559 1.08617 107.23 0.756802C106.901 0.428269 106.459 0.246149 105.997 0.250071L86.0006 0.250062C85.5411 0.246149 85.0986 0.428269 84.7703 0.756802C84.4411 1.08617 84.2538 1.53569 84.25 2.00426L84.25 13.9937C84.2538 14.4643 84.4411 14.9138 84.7703 15.2432C85.0986 15.5717 85.5411 15.7538 86.0028 15.7499H105.997ZM105.996 16.2499C105.996 16.2499 105.995 16.2499 105.995 16.2499L105.997 16.2499H105.996Z" fill="white" stroke="black" stroke-opacity="0.2" stroke-width="0.5"/>
<path d="M96.6133 15.9999H105.998C106.525 16.0043 107.032 15.7993 107.407 15.4299C107.783 15.0605 107.996 14.5571 108.001 14.0303V11.6717C104.457 13.706 100.614 15.1668 96.6133 15.9999Z" fill="#F27712"/>
<path d="M107.173 9.29649H106.321L105.361 8.03029H105.27V9.29649H104.574V6.15167H105.601C106.403 6.15167 106.867 6.4827 106.867 7.07856C106.867 7.56684 106.577 7.88132 106.056 7.98063L107.173 9.29649ZM106.147 7.10339C106.147 6.79718 105.915 6.63994 105.485 6.63994H105.27V7.59167H105.468C105.915 7.59167 106.147 7.42615 106.147 7.10339ZM102.141 6.15167H104.111V6.68132H102.836V7.38477H104.061V7.9227H102.836V8.77512H104.111V9.30477H102.141V6.15167ZM99.9067 9.37925L98.4005 6.14339H99.1619L100.114 8.26201L101.074 6.14339H101.818L100.296 9.37925H99.9233H99.9067ZM93.6088 9.37098C92.5495 9.37098 91.7219 8.65098 91.7219 7.71581C91.7219 6.80546 92.5661 6.06891 93.6254 6.06891C93.9233 6.06891 94.1716 6.12684 94.4778 6.25925V6.98753C94.2459 6.75971 93.9339 6.63194 93.6088 6.63167C92.9467 6.63167 92.4419 7.11167 92.4419 7.71581C92.4419 8.35305 92.9385 8.80822 93.6419 8.80822C93.9564 8.80822 94.1964 8.70891 94.4778 8.46063V9.18891C94.1633 9.32132 93.8985 9.37098 93.6088 9.37098ZM91.5067 8.33649C91.5067 8.94891 91.0019 9.37098 90.2736 9.37098C89.744 9.37098 89.3633 9.18891 89.0405 8.77512L89.4957 8.38615C89.653 8.66753 89.9178 8.80822 90.2488 8.80822C90.5633 8.80822 90.7867 8.61787 90.7867 8.3696C90.7867 8.22891 90.7205 8.12132 90.5798 8.03856C90.4256 7.96371 90.265 7.90277 90.0998 7.85649C89.4461 7.6496 89.2226 7.42615 89.2226 6.98753C89.2226 6.47443 89.7026 6.08546 90.3316 6.08546C90.7288 6.08546 91.0847 6.2096 91.3826 6.44132L91.0185 6.85512C90.8741 6.6969 90.6699 6.60677 90.4557 6.60684C90.1578 6.60684 89.9426 6.75581 89.9426 6.95443C89.9426 7.11994 90.0667 7.21098 90.4805 7.35167C91.275 7.59994 91.5067 7.83167 91.5067 8.34477V8.33649ZM88.0888 6.15167H88.784V9.30477H88.0888V6.15167ZM85.8543 9.30477H84.8281V6.15167H85.8543C86.9798 6.15167 87.7578 6.79718 87.7578 7.72408C87.7578 8.19581 87.5261 8.6427 87.1205 8.94063C86.773 9.18891 86.384 9.30477 85.8461 9.30477H85.8543ZM86.6654 6.93787C86.4336 6.75581 86.1688 6.6896 85.7136 6.6896H85.5233V8.77512H85.7136C86.1605 8.77512 86.4419 8.69236 86.6654 8.52684C86.9054 8.32822 87.0461 8.03029 87.0461 7.72408C87.0461 7.41787 86.9054 7.12822 86.6654 6.93787Z" fill="black"/>
<path d="M96.413 6.06891C95.5026 6.06891 94.7578 6.79718 94.7578 7.69925C94.7578 8.65925 95.4695 9.37925 96.413 9.37925C97.3399 9.37925 98.0682 8.65098 98.0682 7.72408C98.0682 6.79718 97.3482 6.06891 96.413 6.06891Z" fill="#F27712"/>
</g>
<defs>
<clipPath id="clip0_251_6598">
<rect width="24" height="16" fill="white"/>
</clipPath>
<clipPath id="clip1_251_6598">
<rect width="24" height="16" fill="white" transform="translate(28)"/>
</clipPath>
<clipPath id="clip2_251_6598">
<rect width="24" height="16" fill="white" transform="translate(56)"/>
</clipPath>
<clipPath id="clip3_251_6598">
<rect width="24" height="16" fill="white" transform="translate(84)"/>
</clipPath>
</defs>
</svg>
