<svg width="62" height="24" viewBox="0 0 62 24" fill="none" xmlns="http://www.w3.org/2000/svg">
<path d="M28.9483 11.6725V18.7485H26.6875V1.27484H32.681C34.2 1.27484 35.4953 1.77777 36.555 2.78361C37.6383 3.78946 38.18 5.01753 38.18 6.46782C38.18 7.9532 37.6383 9.18127 36.555 10.1754C35.507 11.1696 34.2118 11.6608 32.681 11.6608H28.9483V11.6725ZM28.9483 3.42689V9.52045H32.7281C33.623 9.52045 34.3766 9.21635 34.9654 8.61986C35.5659 8.02337 35.872 7.29823 35.872 6.47951C35.872 5.6725 35.5659 4.95905 34.9654 4.36256C34.3766 3.74268 33.6348 3.43858 32.7281 3.43858H28.9483V3.42689Z" fill="white"/>
<path d="M44.0915 6.39764C45.7636 6.39764 47.0824 6.84209 48.048 7.73098C49.0135 8.61986 49.4963 9.83624 49.4963 11.3801V18.7485H47.3415V17.0877H47.2473C46.317 18.4561 45.0689 19.1345 43.5146 19.1345C42.184 19.1345 41.0771 18.7485 40.1822 17.9649C39.2873 17.1813 38.8398 16.2105 38.8398 15.0409C38.8398 13.8011 39.3108 12.8187 40.2529 12.0935C41.1949 11.3567 42.4548 10.9941 44.0209 10.9941C45.3632 10.9941 46.4701 11.2397 47.3297 11.731V11.2164C47.3297 10.4327 47.0235 9.77776 46.3995 9.22805C45.7754 8.67834 45.0453 8.40934 44.2093 8.40934C42.9494 8.40934 41.9485 8.93565 41.2184 9.99998L39.2284 8.76021C40.3235 7.18127 41.9485 6.39764 44.0915 6.39764ZM41.1713 15.076C41.1713 15.6608 41.4186 16.152 41.9249 16.538C42.4195 16.9239 43.0082 17.1228 43.6794 17.1228C44.6332 17.1228 45.481 16.7719 46.2228 16.0701C46.9647 15.3684 47.3415 14.5497 47.3415 13.6023C46.635 13.0526 45.6576 12.7719 44.3977 12.7719C43.4792 12.7719 42.7138 12.9941 42.1015 13.4269C41.4775 13.883 41.1713 14.4327 41.1713 15.076Z" fill="white"/>
<path d="M61.788 6.78363L54.252 24H51.9205L54.723 17.9766L49.7539 6.78363H52.2149L55.7945 15.3684H55.8416L59.327 6.78363H61.788Z" fill="white"/>
<path d="M19.9579 10.2456C19.9579 9.51343 19.892 8.81284 19.7695 8.13916H10.293V11.9988L15.7507 12C15.5293 13.2842 14.817 14.3789 13.7254 15.1087V17.6128H16.9741C18.8711 15.869 19.9579 13.2912 19.9579 10.2456Z" fill="#4285F4"/>
<path d="M13.7275 15.1088C12.8232 15.7146 11.6586 16.069 10.2962 16.069C7.66452 16.069 5.43196 14.3076 4.63243 11.9333H1.28125V14.5158C2.94154 17.7883 6.35395 20.0339 10.2962 20.0339C13.021 20.0339 15.3101 19.1439 16.9762 17.6117L13.7275 15.1088Z" fill="#34A853"/>
<path d="M4.31535 10.0175C4.31535 9.35087 4.42721 8.70643 4.63092 8.10058V5.51813H1.27974C0.593252 6.87134 0.207031 8.39883 0.207031 10.0175C0.207031 11.6362 0.594429 13.1637 1.27974 14.5169L4.63092 11.9345C4.42721 11.3286 4.31535 10.6842 4.31535 10.0175Z" fill="#FABB05"/>
<path d="M10.2962 3.96491C11.7834 3.96491 13.1152 4.47368 14.1667 5.46783L17.0457 2.61052C15.2971 0.992982 13.0175 0 10.2962 0C6.35513 0 2.94154 2.24561 1.28125 5.51812L4.63243 8.10058C5.43196 5.72631 7.66452 3.96491 10.2962 3.96491Z" fill="#E94235"/>
</svg>
