<svg width="62" height="14" viewBox="0 0 62 14" fill="none" xmlns="http://www.w3.org/2000/svg">
<g clip-path="url(#clip0_131_3147)">
<path fill-rule="evenodd" clip-rule="evenodd" d="M5.47252 4H9.87224C12.2345 4 13.1238 5.00267 12.9863 6.47572C12.7592 8.90764 11.0057 10.2531 8.67975 10.2531H7.50543C7.1863 10.2531 6.97165 10.4302 6.88534 10.9101L6.38676 13.7001C6.35383 13.881 6.24026 13.9857 6.0699 14H3.3056C3.04552 14 2.95353 13.8334 3.02167 13.4725L4.70706 4.52847C4.77293 4.17045 5.00688 4 5.47252 4Z" fill="#009EE3"/>
<path fill-rule="evenodd" clip-rule="evenodd" d="M23.5096 3C24.9162 3 26.214 3.73093 26.0364 5.55259C25.8212 7.71755 24.6105 8.91549 22.7004 8.92064H21.0313C20.7913 8.92064 20.675 9.10827 20.6126 9.49281L20.2898 11.4588C20.2414 11.7557 20.0821 11.9021 19.8475 11.9021H18.2946C18.0471 11.9021 17.961 11.7506 18.0159 11.4114L19.2976 3.53196C19.3611 3.14433 19.5128 3 19.7894 3H23.5064H23.5096ZM20.9807 7.21857H22.2452C23.0361 7.18971 23.5613 6.66496 23.614 5.71857C23.6463 5.13403 23.2341 4.71547 22.5788 4.71856L21.3885 4.72372L20.9807 7.21857ZM30.2582 11.299C30.4002 11.1753 30.5444 11.1114 30.524 11.264L30.4734 11.6289C30.4476 11.8196 30.5261 11.9207 30.7112 11.9207H32.0909C32.3233 11.9207 32.4363 11.831 32.4933 11.4866L33.3435 6.37527C33.3865 6.11857 33.3209 5.9928 33.1175 5.9928H31.6001C31.4635 5.9928 31.3967 6.06599 31.3612 6.26599L31.3053 6.58042C31.2762 6.74434 31.1977 6.77321 31.1245 6.60826C30.8673 6.02475 30.2108 5.7629 29.295 5.78352C27.1675 5.82578 25.733 7.37321 25.5791 9.35673C25.4607 10.8908 26.6079 12.0959 28.1209 12.0959C29.2186 12.0959 29.7093 11.7866 30.2625 11.3021L30.2582 11.299ZM29.1024 10.5124C28.1866 10.5124 27.5484 9.8124 27.6808 8.95466C27.8132 8.09693 28.6698 7.39692 29.5856 7.39692C30.5014 7.39692 31.1395 8.09693 31.0072 8.95466C30.8748 9.8124 30.0193 10.5124 29.1024 10.5124ZM36.0436 5.9763H34.6446C34.3562 5.9763 34.2389 6.18249 34.3303 6.43609L36.0672 11.3083L34.3637 13.6268C34.2206 13.8207 34.3314 13.997 34.5327 13.997H36.1049C36.1965 14.0071 36.2893 13.9918 36.3721 13.9529C36.4549 13.9139 36.5243 13.853 36.572 13.7774L41.914 6.43713C42.0786 6.21135 42.0011 5.97424 41.731 5.97424H40.2427C39.9877 5.97424 39.8854 6.07115 39.7391 6.27424L37.5114 9.36704L36.516 6.26702C36.4579 6.07939 36.3126 5.9763 36.0446 5.9763H36.0436Z" fill="#113984"/>
<path fill-rule="evenodd" clip-rule="evenodd" d="M48.4707 3.00204C49.8676 3.00204 51.1565 3.7251 50.9802 5.52714C50.7664 7.66879 49.5641 8.85383 47.667 8.85892H46.0104C45.7721 8.85892 45.6567 9.04453 45.5947 9.42493L45.2741 11.3697C45.226 11.6635 45.0678 11.8083 44.8348 11.8083H43.2926C43.0468 11.8083 42.9613 11.6584 43.0158 11.3228L44.2908 3.52623C44.3539 3.14278 44.5046 3 44.7792 3H48.4707V3.00204ZM45.9591 7.17518H47.2149C48.0005 7.14663 48.522 6.62754 48.5744 5.69133C48.6065 5.11309 48.1971 4.69904 47.5463 4.7021L46.3642 4.7072L45.9591 7.17518ZM55.1729 11.2117C55.314 11.0893 55.4572 11.0261 55.4369 11.177L55.3867 11.538C55.361 11.7267 55.4391 11.8266 55.6229 11.8266H56.993C57.2239 11.8266 57.3361 11.7379 57.3928 11.3973L58.2371 6.34096C58.2798 6.08703 58.2146 5.96261 58.0126 5.96261H56.5078C56.3721 5.96261 56.3058 6.03502 56.2706 6.23286L56.215 6.54391C56.1861 6.70606 56.1081 6.73462 56.0354 6.57145C55.78 5.99422 55.1281 5.73519 54.2185 5.75558C52.1056 5.7974 50.6809 7.32816 50.5281 9.29031C50.4105 10.8078 51.5498 12 53.0525 12C54.1426 12 54.63 11.6941 55.1794 11.2147L55.1729 11.2117ZM54.0262 10.4335C53.1166 10.4335 52.4829 9.74108 52.6143 8.89258C52.7458 8.04408 53.5965 7.35162 54.506 7.35162C55.4155 7.35162 56.0493 8.04408 55.9179 8.89258C55.7864 9.74108 54.9357 10.4335 54.0262 10.4335ZM60.3457 11.8348H58.764C58.7365 11.836 58.709 11.8313 58.6836 11.8212C58.6582 11.8111 58.6354 11.7957 58.6169 11.7763C58.5985 11.7568 58.5847 11.7336 58.5767 11.7085C58.5687 11.6833 58.5666 11.6568 58.5705 11.6308L59.9599 3.2315C59.9732 3.17418 60.0064 3.12283 60.0541 3.08579C60.1019 3.04876 60.1613 3.02823 60.2228 3.02754H61.8046C61.8321 3.02636 61.8596 3.031 61.885 3.04112C61.9104 3.05124 61.9332 3.06659 61.9516 3.08607C61.9701 3.10556 61.9839 3.1287 61.9919 3.15384C61.9999 3.17898 62.002 3.2055 61.9981 3.2315L60.6087 11.6308C60.5958 11.6885 60.5628 11.7403 60.515 11.7778C60.4673 11.8152 60.4076 11.836 60.3457 11.8368V11.8348Z" fill="#009EE3"/>
<path fill-rule="evenodd" clip-rule="evenodd" d="M2.64938 0H6.72029C7.86661 0 9.22708 0.0373379 10.1362 0.853438C10.744 1.39857 11.0631 2.26588 10.9896 3.20039C10.7398 6.35918 8.88066 8.129 6.38647 8.129H4.37936C4.03714 8.129 3.81144 8.35943 3.71487 8.98244L3.15431 12.6096C3.11756 12.8442 3.01784 12.9829 2.83938 13H0.327344C0.0491616 13 -0.0495153 12.7866 0.022917 12.3151L1.82848 0.689151C1.90091 0.221893 2.1539 0 2.64938 0Z" fill="#113984"/>
<path fill-rule="evenodd" clip-rule="evenodd" d="M4 9L4.79741 4.57403C4.8669 4.18584 5.10954 4 5.59246 4H10.1555C10.9105 4 11.5218 4.10324 12 4.29424C11.5418 7.01569 9.53357 8.52715 6.90459 8.52715H4.65607C4.35454 8.52818 4.1331 8.66033 4 9Z" fill="#172C70"/>
</g>
<defs>
<clipPath id="clip0_131_3147">
<rect width="62" height="14" fill="white"/>
</clipPath>
</defs>
</svg>
