<svg width="24" height="25" viewBox="0 0 24 25" fill="none" xmlns="http://www.w3.org/2000/svg">
<path d="M21.9529 17.3268C21.6125 17.1398 21.185 17.2642 20.9981 17.6045C20.8111 17.9448 20.9355 18.3723 21.2758 18.5593C22.1134 19.0194 22.5938 19.5295 22.5938 19.9588C22.5938 20.4838 21.8498 21.2976 19.7619 22.0069C17.6992 22.7078 14.9426 23.0937 12 23.0937C9.05742 23.0937 6.30084 22.7078 4.23811 22.0069C2.15016 21.2976 1.40625 20.4838 1.40625 19.9588C1.40625 19.5295 1.88663 19.0194 2.72419 18.5592C3.06455 18.3723 3.18886 17.9448 3.00187 17.6044C2.81489 17.2641 2.38753 17.1398 2.04708 17.3267C1.11323 17.8398 0 18.7129 0 19.9588C0 20.9138 0.656813 22.2754 3.78572 23.3385C5.99034 24.0875 8.90756 24.5 12 24.5C15.0924 24.5 18.0097 24.0875 20.2143 23.3385C23.3432 22.2754 24 20.9138 24 19.9588C24 18.7129 22.8868 17.8398 21.9529 17.3268Z" fill="white"/>
<path d="M6.69025 20.9905C8.11759 21.3937 10.0029 21.6158 11.9987 21.6158C13.9946 21.6158 15.8799 21.3937 17.3073 20.9905C19.0535 20.4972 19.9389 19.7831 19.9389 18.8682C19.9389 17.9532 19.0535 17.2392 17.3073 16.746C16.9196 16.6365 16.498 16.5404 16.0498 16.4585C15.7979 16.8933 15.5429 17.3263 15.2846 17.7573C15.7808 17.8317 16.2466 17.923 16.6696 18.0308C17.9547 18.3581 18.4242 18.7266 18.5207 18.8682C18.4241 19.0099 17.9547 19.3784 16.6696 19.7057C15.4532 20.0155 13.8883 20.1922 12.24 20.208C12.1597 20.2141 12.0793 20.2172 11.9987 20.2173C11.9177 20.2173 11.8373 20.2139 11.7574 20.208C10.1092 20.1922 8.5442 20.0156 7.32784 19.7057C6.04272 19.3784 5.57327 19.0099 5.47675 18.8682C5.57327 18.7266 6.04277 18.3581 7.32789 18.0308C7.75089 17.9231 8.21669 17.8317 8.71286 17.7573C8.44619 17.312 8.19114 16.879 7.94772 16.4585C7.4995 16.5405 7.07786 16.6365 6.69025 16.746C4.94402 17.2392 4.05859 17.9533 4.05859 18.8682C4.05859 19.7831 4.94402 20.4972 6.69025 20.9905Z" fill="white"/>
<path d="M12.0011 18.811C12.627 18.811 13.1956 18.492 13.5221 17.9578C15.8101 14.2145 18.5373 9.28109 18.5373 7.0362C18.5373 3.43212 15.6052 0.5 12.0011 0.5C8.39697 0.5 5.46484 3.43212 5.46484 7.0362C5.46484 9.28109 8.19217 14.2145 10.4801 17.9578C10.8066 18.492 11.3752 18.811 12.0011 18.811ZM9.37389 6.58742C9.37389 5.13884 10.5525 3.96031 12.0011 3.96031C13.4497 3.96031 14.6283 5.13884 14.6283 6.58742C14.6283 8.03605 13.4497 9.21458 12.0011 9.21458C10.5525 9.21458 9.37389 8.03609 9.37389 6.58742Z" fill="white"/>
</svg>
