<svg width="24" height="25" viewBox="0 0 24 25" fill="none" xmlns="http://www.w3.org/2000/svg">
<g clip-path="url(#clip0_362_9597)">
<path d="M23.9994 16.7421C23.9994 13.7638 22.2908 11.1059 19.7319 9.81299C19.6525 15.5233 15.0228 20.153 9.3125 20.2324C10.6054 22.7913 13.2634 24.4999 16.2416 24.4999C17.638 24.4999 18.9958 24.128 20.1889 23.4214L23.9655 24.466L22.9209 20.6894C23.6275 19.4963 23.9994 18.1384 23.9994 16.7421Z" fill="white"/>
<path d="M18.3281 9.66406C18.3281 4.61094 14.2172 0.5 9.16406 0.5C4.11094 0.5 0 4.61094 0 9.66406C0 11.3109 0.438375 12.9144 1.27078 14.3221L0.0336563 18.7942L4.506 17.5574C5.91375 18.3897 7.5172 18.8281 9.16406 18.8281C14.2172 18.8281 18.3281 14.7172 18.3281 9.66406ZM7.75781 7.53125H6.35156C6.35156 5.98034 7.61316 4.71875 9.16406 4.71875C10.715 4.71875 11.9766 5.98034 11.9766 7.53125C11.9766 8.31842 11.6433 9.07503 11.0619 9.60673L9.86719 10.7002V11.7969H8.46094V10.081L10.1125 8.5693C10.4077 8.2992 10.5703 7.93062 10.5703 7.53125C10.5703 6.7558 9.93952 6.125 9.16406 6.125C8.38861 6.125 7.75781 6.7558 7.75781 7.53125ZM8.46094 13.2031H9.86719V14.6094H8.46094V13.2031Z" fill="white"/>
</g>
<defs>
<clipPath id="clip0_362_9597">
<rect width="24" height="24" fill="white" transform="translate(0 0.5)"/>
</clipPath>
</defs>
</svg>
